<svg xmlns="http://www.w3.org/2000/svg" version="1.1" xmlns:xlink="http://www.w3.org/1999/xlink" xmlns:svgjs="http://svgjs.com/svgjs" width="512" height="512" x="0" y="0" viewBox="0 0 74 74" style="enable-background:new 0 0 512 512" xml:space="preserve" class=""><g><path xmlns="http://www.w3.org/2000/svg" d="m71 42.5a1 1 0 0 1 -1-1v-2.93a1 1 0 1 1 2 0v2.93a1 1 0 0 1 -1 1z" fill="#807d7d" data-original="#000000" class=""></path><path xmlns="http://www.w3.org/2000/svg" d="m69 72h-64a3 3 0 0 1 -3-3v-64a3 3 0 0 1 3-3h64a3 3 0 0 1 3 3v26.56a1 1 0 1 1 -2 0v-26.56a1 1 0 0 0 -1-1h-64a1 1 0 0 0 -1 1v64a1 1 0 0 0 1 1h64a1 1 0 0 0 1-1v-10.56a1 1 0 0 1 2 0v10.56a3 3 0 0 1 -3 3z" fill="#807d7d" data-original="#000000" class=""></path><path xmlns="http://www.w3.org/2000/svg" d="m71 52.44a1 1 0 0 1 -1-1v-2.94a1 1 0 0 1 2 0v2.94a1 1 0 0 1 -1 1z" fill="#807d7d" data-original="#000000" class=""></path><path xmlns="http://www.w3.org/2000/svg" d="m71 19h-68a1 1 0 0 1 0-2h68a1 1 0 0 1 0 2z" fill="#807d7d" data-original="#000000" class=""></path><path xmlns="http://www.w3.org/2000/svg" d="m62.243 14.252a3.752 3.752 0 1 1 3.757-3.752 3.756 3.756 0 0 1 -3.757 3.752zm0-5.5a1.752 1.752 0 1 0 1.757 1.748 1.754 1.754 0 0 0 -1.757-1.752z" fill="#807d7d" data-original="#000000" class=""></path><path xmlns="http://www.w3.org/2000/svg" d="m52.042 14.252a3.752 3.752 0 1 1 3.751-3.752 3.756 3.756 0 0 1 -3.751 3.752zm0-5.5a1.752 1.752 0 1 0 1.751 1.748 1.754 1.754 0 0 0 -1.751-1.752z" fill="#807d7d" data-original="#000000" class=""></path><path xmlns="http://www.w3.org/2000/svg" d="m41.84 14.252a3.752 3.752 0 1 1 3.752-3.752 3.756 3.756 0 0 1 -3.752 3.752zm0-5.5a1.752 1.752 0 1 0 1.752 1.748 1.755 1.755 0 0 0 -1.752-1.752z" fill="#807d7d" data-original="#000000" class=""></path><path xmlns="http://www.w3.org/2000/svg" d="m49.518 62h-25.036a2.231 2.231 0 0 1 -2.228-2.229v-15.605a2.23 2.23 0 0 1 2.228-2.228h25.036a2.23 2.23 0 0 1 2.228 2.228v15.605a2.231 2.231 0 0 1 -2.228 2.229zm-25.036-18.062a.228.228 0 0 0 -.228.228v15.605a.229.229 0 0 0 .228.229h25.036a.229.229 0 0 0 .228-.229v-15.605a.228.228 0 0 0 -.228-.228z" fill="#807d7d" data-original="#000000" class=""></path><path xmlns="http://www.w3.org/2000/svg" d="m45.721 43.938h-17.442a1 1 0 0 1 -1-1v-7.217a9.721 9.721 0 0 1 19.442 0v7.217a1 1 0 0 1 -1 1zm-16.442-2h15.442v-6.217a7.721 7.721 0 0 0 -15.442 0z" fill="#807d7d" data-original="#000000" class=""></path><path xmlns="http://www.w3.org/2000/svg" d="m37 54.073a3.5 3.5 0 1 1 3.5-3.5 3.5 3.5 0 0 1 -3.5 3.5zm0-5a1.5 1.5 0 1 0 1.5 1.5 1.5 1.5 0 0 0 -1.5-1.5z" fill="#807d7d" data-original="#000000" class=""></path><path xmlns="http://www.w3.org/2000/svg" d="m37 56.865a1 1 0 0 1 -1-1v-2.792a1 1 0 0 1 2 0v2.792a1 1 0 0 1 -1 1z" fill="#807d7d" data-original="#000000" class=""></path></g></svg>