<svg xmlns="http://www.w3.org/2000/svg" version="1.1" xmlns:xlink="http://www.w3.org/1999/xlink" xmlns:svgjs="http://svgjs.com/svgjs" width="512" height="512" x="0" y="0" viewBox="0 0 512 512" style="enable-background:new 0 0 512 512" xml:space="preserve" class=""><g><path xmlns="http://www.w3.org/2000/svg" d="m505.023 233.382-47.509-48.095c-4.513-4.567-10.782-7.187-17.202-7.187h-78.101v-84.466c0-10.17-8.274-18.444-18.445-18.444h-325.321c-10.171 0-18.445 8.274-18.445 18.444v283.868c0 10.501 8.543 19.044 19.044 19.044h27.663c5.609 23.076 26.436 40.265 51.213 40.265s45.604-17.189 51.213-40.265h225.857c5.609 23.076 26.435 40.265 51.213 40.265s45.604-17.189 51.213-40.265h12.376c12.246 0 22.209-9.963 22.209-22.208v-123.963c-.001-6.403-2.479-12.438-6.978-16.993zm-486.578-143.192h325.321c1.899 0 3.445 1.545 3.445 3.444v39.536h-264.512c-4.142 0-7.5 3.358-7.5 7.5s3.358 7.5 7.5 7.5h264.512v37.41c0 .007-.001.013-.001.019s.001.013.001.019v145.701h-47.024c-4.143 0-7.5 3.358-7.5 7.5s3.357 7.5 7.5 7.5h47.023v35.225h-196.644c-.662-13.788-6.651-26.196-15.943-35.225h129.534c4.143 0 7.5-3.358 7.5-7.5s-3.357-7.5-7.5-7.5h-249.157v-183.149h31.669c4.142 0 7.5-3.358 7.5-7.5s-3.358-7.5-7.5-7.5h-31.669v-39.536c0-1.899 1.545-3.444 3.445-3.444zm-3.445 287.312v-31.181h46.218c-9.292 9.029-15.281 21.437-15.943 35.225h-26.231c-2.23 0-4.044-1.814-4.044-4.044zm82.92 44.309c-20.793 0-37.71-16.917-37.71-37.71s16.917-37.71 37.71-37.71 37.71 16.917 37.71 37.71-16.916 37.71-37.71 37.71zm328.283 0c-20.793 0-37.71-16.917-37.71-37.71s16.917-37.71 37.71-37.71 37.71 16.917 37.71 37.71-16.917 37.71-37.71 37.71zm70.797-47.474c0 3.975-3.234 7.208-7.209 7.208h-10.944c-1.338-27.882-24.438-50.155-52.645-50.155s-51.307 22.273-52.645 50.155h-11.347v-42.655c0-.009-.001-.017-.001-.025 0-.015.002-.03.002-.045v-145.72h78.101c2.438 0 4.817.995 6.53 2.729l47.509 48.095c1.709 1.729 2.649 4.021 2.649 6.452z" fill="#807d7d" data-original="#000000" class=""></path><path xmlns="http://www.w3.org/2000/svg" d="m441.987 216.42c-2.568-2.601-6.139-4.093-9.795-4.093h-38.421c-7.591 0-13.766 6.175-13.766 13.766v57.496c0 7.591 6.175 13.766 13.766 13.766h71.669c7.591 0 13.766-6.175 13.766-13.766v-23.838c0-3.646-1.411-7.083-3.973-9.674zm22.219 65.935h-69.2v-55.028h36.671l32.529 32.931z" fill="#807d7d" data-original="#000000" class=""></path><path xmlns="http://www.w3.org/2000/svg" d="m426.203 359.134c-13.767 0-24.967 11.2-24.967 24.967s11.2 24.967 24.967 24.967 24.967-11.2 24.967-24.967c-.001-13.767-11.201-24.967-24.967-24.967zm0 34.934c-5.496 0-9.967-4.471-9.967-9.967s4.471-9.967 9.967-9.967 9.967 4.471 9.967 9.967c-.001 5.495-4.471 9.967-9.967 9.967z" fill="#807d7d" data-original="#000000" class=""></path><path xmlns="http://www.w3.org/2000/svg" d="m97.92 359.134c-13.767 0-24.967 11.2-24.967 24.967s11.2 24.967 24.967 24.967 24.967-11.2 24.967-24.967-11.2-24.967-24.967-24.967zm0 34.934c-5.496 0-9.967-4.471-9.967-9.967s4.471-9.967 9.967-9.967 9.967 4.471 9.967 9.967c0 5.495-4.471 9.967-9.967 9.967z" fill="#807d7d" data-original="#000000" class=""></path><path xmlns="http://www.w3.org/2000/svg" d="m39.169 189.411v90.471c0 10.11 8.226 18.336 18.336 18.336h247.202c10.11 0 18.335-8.226 18.335-18.336v-90.471c0-10.11-8.225-18.336-18.335-18.336h-247.202c-10.11 0-18.336 8.226-18.336 18.336zm15 0c0-1.839 1.497-3.336 3.336-3.336h247.202c1.839 0 3.335 1.497 3.335 3.336v90.471c0 1.839-1.496 3.336-3.335 3.336h-247.202c-1.839 0-3.336-1.497-3.336-3.336z" fill="#807d7d" data-original="#000000" class=""></path><path xmlns="http://www.w3.org/2000/svg" d="m236.386 119.18h63.801c4.143 0 7.5-3.358 7.5-7.5s-3.357-7.5-7.5-7.5h-63.801c-4.142 0-7.5 3.358-7.5 7.5s3.358 7.5 7.5 7.5z" fill="#807d7d" data-original="#000000" class=""></path><path xmlns="http://www.w3.org/2000/svg" d="m116.618 217.339-7.308 20.848-7.188-21.07c-.001-.003-.002-.006-.003-.009-1.538-4.472-7.861-4.481-9.439-.055l-7.589 21.297-7.197-20.942c-2.148-6.25-11.609-3.011-9.457 3.25l11.839 34.452c1.536 4.471 7.852 4.506 9.438.053l7.572-21.248 7.227 21.184c1.528 4.478 7.876 4.53 9.451.04l12.09-34.493c2.187-6.239-7.246-9.555-9.436-3.307z" fill="#807d7d" data-original="#000000" class=""></path><path xmlns="http://www.w3.org/2000/svg" d="m200.472 217.339-7.308 20.848-7.188-21.07c-.001-.003-.002-.006-.003-.009-1.538-4.472-7.861-4.481-9.439-.055l-7.589 21.297-7.197-20.942c-2.148-6.249-11.609-3.012-9.457 3.25l11.839 34.452c1.536 4.471 7.852 4.506 9.438.053l7.572-21.248 7.227 21.184c1.528 4.478 7.876 4.53 9.451.04l12.09-34.493c2.188-6.239-7.245-9.555-9.436-3.307z" fill="#807d7d" data-original="#000000" class=""></path><path xmlns="http://www.w3.org/2000/svg" d="m284.327 217.339-7.308 20.848-7.188-21.07c-.002-.005-.004-.01-.006-.015-1.539-4.455-7.853-4.488-9.437-.049l-7.59 21.298-7.197-20.942c-2.148-6.25-11.609-3.011-9.457 3.25l11.839 34.452c1.536 4.471 7.852 4.506 9.438.054l7.573-21.248 7.226 21.184c1.528 4.479 7.877 4.529 9.451.04l12.091-34.493c2.189-6.24-7.246-9.557-9.435-3.309z" fill="#807d7d" data-original="#000000" class=""></path><circle xmlns="http://www.w3.org/2000/svg" cx="139.813" cy="253.485" r="5.5" fill="#807d7d" data-original="#000000" class=""></circle><circle xmlns="http://www.w3.org/2000/svg" cx="223.75" cy="253.485" r="5.5" fill="#807d7d" data-original="#000000" class=""></circle></g></svg>