<svg xmlns="http://www.w3.org/2000/svg" version="1.1" xmlns:xlink="http://www.w3.org/1999/xlink" xmlns:svgjs="http://svgjs.com/svgjs" width="512" height="512" x="0" y="0" viewBox="0 0 512 512" style="enable-background:new 0 0 512 512" xml:space="preserve" class=""><g><g xmlns="http://www.w3.org/2000/svg"><path d="m300.001 497h15v15h-15z" fill="#807d7d" data-original="#000000" class=""></path><path d="m226.354 429.5-11.903-71.422c6.751-6.962 10.549-16.244 10.549-26.078 0-20.678-16.822-37.5-37.5-37.5s-37.5 16.822-37.5 37.5c0 9.833 3.798 19.115 10.55 26.078l-11.904 71.422zm-38.854-120c12.406 0 22.5 10.093 22.5 22.5 0 6.812-3.04 13.185-8.34 17.484l-3.392 2.75 10.378 62.265h-42.293l10.378-62.265-3.392-2.751c-5.3-4.3-8.34-10.672-8.34-17.484.001-12.406 10.095-22.499 22.501-22.499z" fill="#807d7d" data-original="#000000" class=""></path><path d="m399.5 249.5c-8.413 0-16.61.935-24.5 2.695v-40.195h-30v-54.5c0-41.903-16.429-81.409-46.259-111.24-29.831-29.831-69.337-46.26-111.24-46.26-41.904 0-81.411 16.428-111.241 46.259-29.831 29.83-46.26 69.337-46.26 111.241v54.5h-30v277.5c0 12.407 10.094 22.5 22.5 22.5h262.5v-15h-262.5c-4.136 0-7.5-3.365-7.5-7.5v-262.5h345v29.664c-42.604 16.029-73 57.196-73 105.336s30.396 89.306 73 105.335v22.165c0 4.135-3.364 7.5-7.5 7.5h-22.499v15h22.499c12.406 0 22.5-10.093 22.5-22.5v-17.695c7.89 1.759 16.087 2.695 24.5 2.695 62.032 0 112.5-50.467 112.5-112.5s-50.468-112.5-112.5-112.5zm-354.5-92c0-37.897 14.868-73.637 41.866-100.634 26.997-26.998 62.738-41.866 100.635-41.866 37.896 0 73.636 14.869 100.633 41.867 26.998 26.998 41.866 62.737 41.866 100.633v54.5h-30v-54.5c0-29.891-11.746-58.098-33.073-79.426-21.328-21.328-49.535-33.074-79.426-33.074-26.839 0-52.89 9.741-73.352 27.427l9.809 11.349c17.738-15.332 40.305-23.776 63.543-23.776 25.884 0 50.324 10.186 68.818 28.681 18.495 18.495 28.681 42.935 28.681 68.819v54.5h-195v-54.5c0-23.236 8.443-45.803 23.776-63.542l-11.349-9.809c-17.687 20.464-27.427 46.514-27.427 73.351v54.5h-30zm354.5 302c-53.762 0-97.5-43.738-97.5-97.5s43.738-97.5 97.5-97.5 97.5 43.738 97.5 97.5-43.738 97.5-97.5 97.5z" fill="#807d7d" data-original="#000000" class=""></path><path d="m400.261 299.916c-10.06-.203-19.512 3.555-26.676 10.576-7.167 7.024-11.114 16.417-11.114 26.446h15c0-5.966 2.349-11.554 6.613-15.733 4.263-4.178 9.92-6.412 15.874-6.292 11.483.232 20.945 9.387 21.54 20.843.317 6.114-1.821 11.918-6.023 16.343-4.205 4.429-9.878 6.868-15.975 6.868h-7.5v27.625h15v-13.402c7.333-1.529 14.136-5.269 19.353-10.764 7.063-7.438 10.658-17.187 10.126-27.45-1.001-19.27-16.911-34.671-36.218-35.06z" fill="#807d7d" data-original="#000000" class=""></path><path d="m392 401.591h15v15h-15z" fill="#807d7d" data-original="#000000" class=""></path><path d="m165 242h15v15h-15z" fill="#807d7d" data-original="#000000" class=""></path><path d="m195 242h15.001v15h-15.001z" fill="#807d7d" data-original="#000000" class=""></path></g></g></svg>