<svg xmlns="http://www.w3.org/2000/svg" version="1.1" xmlns:xlink="http://www.w3.org/1999/xlink" xmlns:svgjs="http://svgjs.com/svgjs" width="512" height="512" x="0" y="0" viewBox="0 0 512 512" style="enable-background:new 0 0 512 512" xml:space="preserve" class=""><g>
<g xmlns="http://www.w3.org/2000/svg">
	<g>
		<g>
			<path d="M512,352c0-17.643-14.357-32-32-32H160c-17.643,0-32,14.357-32,32v42.667c0,8.213,3.2,15.659,8.32,21.333     c-5.12,5.675-8.32,13.12-8.32,21.333V480c0,17.643,14.357,32,32,32h320c17.643,0,32-14.357,32-32v-42.667     c0-8.213-3.2-15.659-8.32-21.333c5.12-5.675,8.32-13.12,8.32-21.333V352z M490.667,480c0,5.888-4.8,10.667-10.667,10.667H160     c-5.867,0-10.667-4.779-10.667-10.667v-42.667c0-5.888,4.8-10.667,10.667-10.667h320c5.867,0,10.667,4.779,10.667,10.667V480z      M490.667,394.667c0,5.888-4.8,10.667-10.667,10.667H160c-5.867,0-10.667-4.779-10.667-10.667V352     c0-5.888,4.8-10.667,10.667-10.667h320c5.867,0,10.667,4.779,10.667,10.667V394.667z" fill="#807d7d" data-original="#000000" class=""></path>
			<path d="M458.667,362.667h-85.333c-5.888,0-10.667,4.779-10.667,10.667c0,5.888,4.779,10.667,10.667,10.667h85.333     c5.888,0,10.667-4.779,10.667-10.667C469.333,367.445,464.555,362.667,458.667,362.667z" fill="#807d7d" data-original="#000000" class=""></path>
			<path d="M458.667,448h-85.333c-5.888,0-10.667,4.779-10.667,10.667s4.779,10.667,10.667,10.667h85.333     c5.888,0,10.667-4.779,10.667-10.667S464.555,448,458.667,448z" fill="#807d7d" data-original="#000000" class=""></path>
			<path d="M181.333,448c-5.888,0-10.667,4.779-10.667,10.667s4.779,10.667,10.667,10.667S192,464.555,192,458.667     S187.221,448,181.333,448z" fill="#807d7d" data-original="#000000" class=""></path>
			<path d="M181.333,362.667c-5.888,0-10.667,4.779-10.667,10.667c0,5.888,4.779,10.667,10.667,10.667S192,379.221,192,373.333     C192,367.445,187.221,362.667,181.333,362.667z" fill="#807d7d" data-original="#000000" class=""></path>
			<path d="M130.048,286.976c-1.024-10.197-1.259-20.608-1.515-30.976h106.133v32c0,5.888,4.779,10.667,10.667,10.667     S256,293.888,256,288v-32h106.155c-0.256,10.155-0.491,20.331-1.493,30.336c-0.576,5.867,3.733,11.072,9.579,11.648     c5.76,0.469,11.093-3.712,11.669-9.579c1.045-10.667,1.301-21.568,1.579-32.405h85.397c-0.491,10.155-1.408,20.267-3.221,30.144     c-1.088,5.803,2.752,11.371,8.533,12.437c5.653,1.067,11.349-2.773,12.416-8.555c2.709-14.613,4.075-29.653,4.075-44.693     C490.688,110.059,380.629,0,245.355,0C110.123,0,0.107,109.973,0.021,245.184c0,0.064-0.021,0.107-0.021,0.149     c0,0.064,0.021,0.107,0.021,0.149C0.064,319.04,32.683,388.075,89.579,434.88c1.963,1.643,4.373,2.432,6.763,2.432     c3.051,0,6.123-1.323,8.256-3.925c3.755-4.544,3.115-11.264-1.451-15.019C90.603,408.043,79.403,396.48,69.547,384H96     c5.888,0,10.667-4.779,10.667-10.667c0-5.888-4.779-10.667-10.667-10.667H54.528C34.901,330.795,23.787,294.187,21.973,256H107.2     c0.277,11.051,0.555,22.165,1.643,33.045c0.533,5.525,5.163,9.621,10.581,9.621c0.341,0,0.704-0.021,1.088-0.021     C126.357,298.069,130.624,292.821,130.048,286.976z M468.843,234.667h-85.141c-0.896-38.72-6.485-74.923-16.064-106.667h68.203     C455.211,159.317,466.987,195.669,468.843,234.667z M420.971,106.667h-60.587c-11.627-30.485-27.115-55.723-45.248-74.091     C357.355,46.464,393.984,72.533,420.971,106.667z M256,22.421c32.192,5.845,61.035,37.76,80.597,84.245H256V22.421z M256,128     h88.533c10.432,31.509,16.832,67.947,17.856,106.667H256V128z M234.667,22.421v84.245h-80.597     C173.632,60.181,202.475,28.267,234.667,22.421z M106.965,234.667H21.909C23.765,195.669,35.541,159.317,54.912,128h68.117     C113.451,159.744,107.861,195.947,106.965,234.667z M69.781,106.667c26.965-34.091,63.552-60.139,105.707-74.048     c-18.112,18.368-33.579,43.584-45.205,74.048H69.781z M146.133,128h88.533v106.667H128.299     C129.301,195.947,135.723,159.509,146.133,128z" fill="#807d7d" data-original="#000000" class=""></path>
		</g>
	</g>
</g>
<g xmlns="http://www.w3.org/2000/svg">
</g>
<g xmlns="http://www.w3.org/2000/svg">
</g>
<g xmlns="http://www.w3.org/2000/svg">
</g>
<g xmlns="http://www.w3.org/2000/svg">
</g>
<g xmlns="http://www.w3.org/2000/svg">
</g>
<g xmlns="http://www.w3.org/2000/svg">
</g>
<g xmlns="http://www.w3.org/2000/svg">
</g>
<g xmlns="http://www.w3.org/2000/svg">
</g>
<g xmlns="http://www.w3.org/2000/svg">
</g>
<g xmlns="http://www.w3.org/2000/svg">
</g>
<g xmlns="http://www.w3.org/2000/svg">
</g>
<g xmlns="http://www.w3.org/2000/svg">
</g>
<g xmlns="http://www.w3.org/2000/svg">
</g>
<g xmlns="http://www.w3.org/2000/svg">
</g>
<g xmlns="http://www.w3.org/2000/svg">
</g>
</g></svg>