<svg xmlns="http://www.w3.org/2000/svg" version="1.1" xmlns:xlink="http://www.w3.org/1999/xlink" xmlns:svgjs="http://svgjs.com/svgjs" width="512" height="512" x="0" y="0" viewBox="0 0 511.879 511.879" style="enable-background:new 0 0 512 512" xml:space="preserve" class=""><g><g xmlns="http://www.w3.org/2000/svg"><path d="m447.007 77.08-167.084-72.144c-15.244-6.582-32.728-6.581-47.966 0l-167.085 72.144c-12.07 5.211-19.869 16.915-19.869 29.819v109.731c-.045 70.273 23.829 139.409 67.226 194.672 2.571 3.275 7.298 3.811 10.53 1.267 3.258-2.558 3.825-7.272 1.267-10.53-41.329-52.631-64.066-118.474-64.023-185.405v-109.735c0-6.913 4.245-13.212 10.814-16.048l167.086-72.144c11.461-4.951 24.61-4.951 36.073 0l167.085 72.144c6.569 2.836 10.814 9.135 10.814 16.048v42.074c0 4.143 3.357 7.5 7.5 7.5s7.5-3.357 7.5-7.5v-42.074c.001-12.904-7.798-24.608-19.868-29.819z" fill="#807d7d" data-original="#000000" class=""></path><path d="m459.376 176.708c-4.143 0-7.5 3.357-7.5 7.5v32.433c.071 112.77-62.081 214.893-162.207 266.53l-22.424 11.092c-7.079 3.501-15.532 3.503-22.611 0l-22.425-11.092c-28.018-14.45-53.448-33.125-75.583-55.507-2.914-2.945-7.663-2.972-10.606-.06-2.945 2.913-2.972 7.662-.06 10.606 23.262 23.521 49.986 43.143 79.431 58.32.037.02.074.038.111.057l22.481 11.12c5.622 2.78 11.789 4.171 17.956 4.171s12.334-1.391 17.956-4.171l22.481-11.12c.037-.019.074-.037.111-.057 51.369-26.479 94.414-66.584 124.483-115.979 30.067-49.395 45.941-106.077 45.904-163.917v-32.427c.002-4.142-3.356-7.499-7.498-7.499z" fill="#807d7d" data-original="#000000" class=""></path><path d="m146.483 85.412-56.953 24.591c-2.748 1.187-4.527 3.893-4.527 6.886v99.768c-.032 50.497 13.824 99.979 40.072 143.097 26.183 43.012 63.649 77.963 108.352 101.074 5.204 2.174 16.692 9.614 22.514 9.102 5.76.536 17.367-6.953 22.512-9.102 19.95-10.314 38.603-23.073 55.439-37.921 3.106-2.739 3.404-7.479.664-10.586-2.74-3.105-7.479-3.404-10.586-.664-15.899 14.021-33.512 26.072-52.351 35.817l-14.573 7.208c-.69.342-1.519.344-2.215-.001l-14.571-7.207c-42.233-21.848-77.631-54.877-102.372-95.52-24.814-40.765-37.915-87.547-37.885-135.293v-94.842l52.426-22.636c3.803-1.643 5.555-6.056 3.913-9.858-1.642-3.804-6.06-5.555-9.859-3.913z" fill="#807d7d" data-original="#000000" class=""></path><path d="m348.695 398.096c3.109 2.713 7.852 2.405 10.581-.728 10.19-11.693 19.451-24.35 27.527-37.616 26.248-43.118 40.104-92.609 40.072-143.118v-99.746c0-2.993-1.779-5.699-4.527-6.886l-158.256-68.331c-5.182-2.261-11.126-2.261-16.278-.012l-68.19 29.443c-3.803 1.643-5.555 6.056-3.913 9.858 1.642 3.804 6.059 5.555 9.858 3.913l68.218-29.455c1.348-.589 2.956-.589 4.333.012l153.757 66.389v94.82c.03 47.759-13.07 94.55-37.885 135.314-7.635 12.542-16.391 24.507-26.023 35.562-2.723 3.122-2.397 7.861.726 10.581z" fill="#807d7d" data-original="#000000" class=""></path><path d="m333.564 158.973c-4.143 0-7.5 3.357-7.5 7.5v93.991c0 3.654 2.634 6.777 6.236 7.393.532.091 1.11.19 11.335.19 4.979 0 12.248-.023 22.911-.083 4.142-.023 7.481-3.399 7.458-7.542-.023-4.128-3.376-7.458-7.499-7.458-.015 0-.028 0-.043 0-7.558.043-18.356.082-25.398.079v-86.57c0-4.142-3.357-7.5-7.5-7.5z" fill="#807d7d" data-original="#000000" class=""></path><path d="m272.249 253.044c-10.531 0-20.709-4.292-27.224-11.48-2.783-3.071-7.526-3.301-10.594-.521-3.069 2.782-3.303 7.525-.521 10.594 9.312 10.274 23.644 16.408 38.339 16.408 17.472 0 32.688-11.423 35.392-26.569 2.039-11.42-3.359-26.416-24.627-34.261-12.256-4.521-23.612-9.46-26.307-10.645-3.329-2.395-4.951-6.253-4.352-10.427.738-5.142 4.652-9.258 10.47-11.01 15.579-4.695 29.566 6.565 29.82 6.773 3.171 2.644 7.885 2.228 10.543-.936 2.665-3.171 2.256-7.902-.915-10.567-.816-.687-20.255-16.717-43.774-9.634-11.382 3.429-19.426 12.334-20.991 23.241-1.454 10.131 2.932 19.873 11.446 25.425.332.217.68.406 1.041.567.539.24 13.369 5.95 27.827 11.283 10.844 4 16.33 10.397 15.052 17.552-1.23 6.887-8.876 14.207-20.625 14.207z" fill="#807d7d" data-original="#000000" class=""></path><path d="m143.411 184.01c-1.454 10.131 2.932 19.873 11.446 25.425.332.217.68.406 1.041.567.539.24 13.369 5.95 27.827 11.283 10.844 4 16.33 10.397 15.052 17.552-1.229 6.887-8.876 14.206-20.625 14.206-10.531 0-20.709-4.292-27.224-11.48-2.782-3.071-7.526-3.301-10.594-.521-3.069 2.782-3.303 7.525-.521 10.594 9.312 10.274 23.644 16.408 38.339 16.408 17.472 0 32.688-11.423 35.392-26.569 2.039-11.42-3.359-26.416-24.627-34.261-12.256-4.521-23.612-9.46-26.307-10.645-3.329-2.395-4.951-6.253-4.352-10.427.738-5.142 4.652-9.258 10.47-11.01 15.579-4.695 29.566 6.565 29.82 6.773 3.171 2.644 7.885 2.228 10.543-.936 2.665-3.171 2.256-7.902-.915-10.567-.816-.687-20.255-16.717-43.774-9.634-11.382 3.43-19.426 12.335-20.991 23.242z" fill="#807d7d" data-original="#000000" class=""></path></g></g></svg>