<svg xmlns="http://www.w3.org/2000/svg" version="1.1" xmlns:xlink="http://www.w3.org/1999/xlink" xmlns:svgjs="http://svgjs.com/svgjs" width="512" height="512" x="0" y="0" viewBox="0 0 5.12 5.12" style="enable-background:new 0 0 512 512" xml:space="preserve" class=""><g><g xmlns="http://www.w3.org/2000/svg" id="Layer_x0020_1"><g id="_552617464"><g><path id="_552618976" d="m4.29221 4.52629h-3.01619c-.0294567 0-.0533307-.023874-.0533307-.0533307 0-.0294606.023874-.0533346.0533307-.0533346h2.96286v-4.18482h-3.37511v2.32884c0 .0294567-.023874.0533307-.0533346.0533307-.0294567 0-.0533307-.023874-.0533307-.0533307v-2.38217c0-.0294606.023874-.0533346.0533307-.0533346h3.48177c.0294567 0 .0533307.023874.0533307.0533346v4.29147c0 .0294685-.0238622.0533465-.0533307.0533465z" fill="#807d7d" data-original="#000000" class=""></path></g><g><path id="_552618808" d="m4.7578 4.99187h-3.48178c-.0294567 0-.0533307-.023874-.0533307-.0533307v-.465587c0-.0294567.023874-.0533307.0533307-.0533307.0294606 0 .0533346.023874.0533346.0533307v.412264l3.37511.00000394v-4.18483h-.41226c-.0294606 0-.0533346-.023874-.0533346-.0533307 0-.0294606.023874-.0533346.0533346-.0533346h.465575c.0294606 0 .0533346.023874.0533346.0533346v4.29148c.00001575.0294567-.0238583.0533307-.0533189.0533307z" fill="#807d7d" data-original="#000000" class=""></path></g><g><path id="_552617872" d="m1.69305 1.74774c-.0977362 0-.188724-.0484567-.243374-.12961-.0164567-.0244331-.00998425-.0575866.0144449-.0740276.0244134-.0164449.0575709-.01.0740276.0144449.0348031.0516811.0927087.0825315.154902.0825315.102886 0 .186583-.0837047.186583-.186598 0-.0943346-.0791969-.178748-.176516-.188165-.14989-.0158898-.262539-.141252-.262539-.291654 0-.161705.131555-.293248.293248-.293248.097748 0 .188724.0484567.243374.129626.0164567.0244291.00998425.0575709-.0144567.0740276-.0244134.0164567-.0575669.01-.0740236-.0144567-.0347953-.0516811-.0927087-.0825315-.154902-.0825315-.10289 0-.186598.0837047-.186598.186598 0 .0957047.0716378.175457.166638.185528.152539.0147638.272413.144055.272413.294291.0000315.161685-.131528.293244-.29322.293244z" fill="#807d7d" data-original="#000000" class=""></path></g><g><path id="_552617848" d="m2.49173 1.74774c-.0977362 0-.18872-.0484567-.243374-.12961-.0164567-.0244331-.00998425-.0575866.0144488-.0740276.0244291-.0164449.0575669-.01.0740236.0144449.0348031.0516811.0927087.0825315.154902.0825315.10289 0 .186583-.0837047.186583-.186598 0-.0943346-.0791969-.178748-.176528-.188165-.149874-.0158898-.262531-.141252-.262531-.291654 0-.161705.131555-.293248.293248-.293248.0977402 0 .188724.0484567.243358.12961.0164724.0244291.01.0575866-.0144449.0740276-.0244134.0164567-.0575827.00997244-.0740157-.0144488-.0348031-.0516772-.0927244-.0825276-.154902-.0825276-.102886 0-.186598.0837047-.186598.186598 0 .0957047.0716378.175457.166642.185524.152555.0147677.272429.144059.272429.294295.00000787.161689-.131543.293248-.29324.293248z" fill="#807d7d" data-original="#000000" class=""></path></g><g><path id="_552618280" d="m3.60874 1.74452h-.517461c-.0294567 0-.0533307-.023874-.0533307-.0533307v-.956445c0-.0294567.023874-.0533307.0533307-.0533307.0294606 0 .0533346.023874.0533346.0533307v.90311h.464126c.0294567 0 .0533307.023874.0533307.0533346 0 .0294567-.023874.0533307-.0533307.0533307z" fill="#807d7d" data-original="#000000" class=""></path></g><g><path id="_552618184" d="m3.75445 3.40621h-1.45005c-.0294606 0-.0533346-.023874-.0533346-.0533307 0-.0294606.023874-.0533346.0533346-.0533346h1.45005c.0294606 0 .0533346.023874.0533346.0533346 0 .0294567-.0238819.0533307-.0533346.0533307z" fill="#807d7d" data-original="#000000" class=""></path></g><g><path id="_552617728" d="m3.75445 3.97301h-1.52544c-.0294606 0-.0533346-.023874-.0533346-.0533346s.023874-.0533346.0533346-.0533346h1.52544c.0294606 0 .0533346.023874.0533346.0533346s-.0238819.0533346-.0533346.0533346z" fill="#807d7d" data-original="#000000" class=""></path></g><g><path id="_552618400" d="m3.75445 2.8394h-1.56313c-.0294567 0-.0533307-.023874-.0533307-.0533307 0-.0294606.023874-.0533346.0533307-.0533346h1.56313c.0294606 0 .0533346.023874.0533346.0533346 0 .0294567-.0238819.0533307-.0533346.0533307z" fill="#807d7d" data-original="#000000" class=""></path></g><g><path id="_552617824" d="m3.75445 2.2726h-2.40624c-.0294606 0-.0533346-.023874-.0533346-.0533346 0-.0294567.023874-.0533307.0533346-.0533307h2.40624c.0294606 0 .0533346.023874.0533346.0533307 0 .0294606-.0238819.0533346-.0533346.0533346z" fill="#807d7d" data-original="#000000" class=""></path></g><g><path id="_552617560" d="m1.2955 3.48174h-.55226c-.0294606 0-.0533346-.023874-.0533346-.0533346v-.276122c0-.181669.147787-.329469.329457-.329469.181669 0 .329461.147803.329461.329469v.276122c.00000787.0294724-.0238661.0533346-.0533228.0533346zm-.498929-.106657h.445594v-.222791c0-.122858-.0999409-.222799-.222803-.222799-.122858 0-.222803.0999409-.222803.222799l-.00000394.222791h.00001575z" fill="#807d7d" data-original="#000000" class=""></path></g><g><path id="_552617056" d="m1.42102 4.09048h-.80328c-.0294567 0-.0533307-.023874-.0533307-.0533346v-.608732c0-.0294567.023874-.0533307.0533307-.0533307l.80328-.00000787c.0294567 0 .0533307.023874.0533307.0533346v.608732c0 .0294606-.023878.0533386-.0533307.0533386zm-.749945-.106665h.69661v-.502067l-.69661-.00000394v.502071z" fill="#807d7d" data-original="#000000" class=""></path></g><g><path id="_552617488" d="m1.01937 4.52629c-.562083 0-1.01935-.457272-1.01935-1.01935 0-.562083.457272-1.01935 1.01935-1.01935.562083 0 1.01935.457272 1.01935 1.01935 0 .562083-.457272 1.01935-1.01935 1.01935zm0-1.93205c-.503264 0-.912689.409429-.912689.912689 0 .503256.409429.912689.912689.912689.503256 0 .912689-.409433.912689-.912689 0-.50326-.409425-.912689-.912689-.912689z" fill="#807d7d" data-original="#000000" class=""></path></g><g><path id="_552617392" d="m5.06665 4.99187c-.0294606 0-.0533346-.023874-.0533346-.0533307v-1.19007c0-.0294567.023874-.0533307.0533346-.0533307.0294567 0 .0533307.023874.0533307.0533307v1.19007c0 .0294567-.023874.0533307-.0533307.0533307z" fill="#807d7d" data-original="#000000" class=""></path></g><g><path id="_552617008" d="m5.06665 4.99187c-.0294606 0-.0533346-.023874-.0533346-.0533307v-1.19007c0-.0294567.023874-.0533307.0533346-.0533307.0294567 0 .0533307.023874.0533307.0533307v1.19007c0 .0294567-.023874.0533307-.0533307.0533307z" fill="#807d7d" data-original="#000000" class=""></path></g><g><path id="_552617176" d="m.501602 1.42485c-.0294606 0-.0533346-.023874-.0533346-.0533346v-1.19005c0-.0294606.023874-.0533346.0533346-.0533346.0294567 0 .0533307.023874.0533307.0533346v1.19006c0 .0294449-.0238898.0533189-.0533307.0533189z" fill="#807d7d" data-original="#000000" class=""></path></g></g></g></g></svg>