<svg xmlns="http://www.w3.org/2000/svg" version="1.1" xmlns:xlink="http://www.w3.org/1999/xlink" xmlns:svgjs="http://svgjs.com/svgjs" width="512" height="512" x="0" y="0" viewBox="0 0 512.005 512.005" style="enable-background:new 0 0 512 512" xml:space="preserve" class=""><g><g xmlns="http://www.w3.org/2000/svg"><path d="m335.101 219.404c12.805 0 23.223-10.418 23.223-23.223v-27.598c0-4.143-3.358-7.5-7.5-7.5s-7.5 3.357-7.5 7.5v27.598c0 4.534-3.689 8.223-8.223 8.223-4.142 0-7.5 3.357-7.5 7.5s3.358 7.5 7.5 7.5z" fill="#807d7d" data-original="#000000"></path><path d="m165.638 456.438c-4.142 0-7.5 3.357-7.5 7.5v35.222c0 7.083 5.762 12.845 12.844 12.845h328.176c7.083 0 12.844-5.762 12.844-12.845v-113.943c0-40.439-32.9-73.34-73.34-73.34h-37.342c-6.733 0-12.21-5.478-12.21-12.21v-15.892c3.764-2.748 7.367-5.696 10.723-8.802h7.679c18.912 0 35.385-12.07 40.991-30.035 1.707-5.473 2.897-11.06 3.549-16.655 9.083-3.183 15.862-11.537 16.603-21.592l3.594-48.798c.708-9.61-4.277-19.152-13.332-23.834.755-32.131-11.137-63.674-33.089-87.301-23.36-25.144-56.44-39.564-90.758-39.564-35.076 0-67.519 14.166-91.075 39.833-21.505 23.432-33.269 54.872-32.727 87.008-9.011 4.636-14.093 14.148-13.378 23.858l3.594 48.798c.949 12.882 11.811 22.973 24.728 22.973h17.351c4.11 22.238 19.3 40.849 37.467 54.138v15.866c0 6.732-5.478 12.21-12.21 12.21h-37.342c-40.44 0-73.34 32.9-73.34 73.34v43.721c0 4.143 3.358 7.5 7.5 7.5s7.5-3.357 7.5-7.5v-43.721c0-32.169 26.171-58.34 58.34-58.34h29.842v45.066c0 3.64 2.173 6.892 5.536 8.283 3.4 1.41 7.229.599 9.77-1.944l14.946-14.945c4.194-4.193 10.973-4.416 15.432-.506.35.306 7.402 6.489 7.889 6.917v58.472c0 6.627 5.391 12.018 12.018 12.018h16.164c6.626 0 12.018-5.391 12.018-12.018v-58.44c.282-.252 8.048-7.064 8.047-6.948 4.459-3.911 11.237-3.688 15.432.505l14.946 14.947c2.552 2.55 6.381 3.347 9.771 1.943 3.362-1.393 5.535-4.644 5.535-8.283v-45.066h29.842c32.169 0 58.34 26.171 58.34 58.34v111.787h-44.83v-83.883c0-4.143-3.358-7.5-7.5-7.5s-7.5 3.357-7.5 7.5v83.883h-204.208v-83.883c0-4.143-3.358-7.5-7.5-7.5s-7.5 3.357-7.5 7.5v83.883h-44.83v-33.067c0-4.144-3.358-7.501-7.5-7.501zm279.024-241.802c-.77.04 1.494.028-16.594.028l5.036-68.386c10.207 0 14.477-.002 14.679.003 2.556.06 5.047 1.114 6.914 3.125 1.874 2.017 2.794 4.64 2.592 7.386l-.316 4.292h-8.032c-4.142 0-7.5 3.357-7.5 7.5s3.358 7.5 7.5 7.5h6.928l-.736 10h-6.191c-4.142 0-7.5 3.357-7.5 7.5s3.358 7.5 7.5 7.5h5.087l-.332 4.506c-.358 4.841-4.261 8.685-9.035 9.046zm-52.679-109.85-21.447-21.447c-3.573-3.572-9.389-3.572-12.962 0l-16.729 16.729c-9.279 9.279-21.616 14.39-34.737 14.39h-14.066c-12.621 0-22.889 10.268-22.889 22.889v4.839c0 7.164-2.79 13.898-7.854 18.963l-7.57 7.569-2.245-30.489c-1.782-24.195 6.141-47.104 22.308-64.506 15.893-17.106 37.649-26.527 61.262-26.527 23.592 0 45.428 9.52 61.487 26.805 16.041 17.265 23.921 39.725 22.189 63.241-.085 1.15-2.426 32.942-2.476 33.619l-9.712-9.712c-5.065-5.064-7.855-11.799-7.855-18.963v-21.213c0-6.116-2.381-11.865-6.704-16.187zm-136.935-47.617c20.847-22.717 49.434-34.976 80.023-34.976 30.163 0 59.237 12.675 79.769 34.773 18.742 20.173 29.142 46.91 29.112 74.311h-9.987c.11-25.13-9.138-48.872-26.435-67.489-18.654-20.079-45.071-31.595-72.476-31.595-27.829 0-53.488 11.122-72.25 31.317-17.229 18.544-26.509 42.359-26.567 67.767h-9.983c.15-27.441 10.436-54.105 28.794-74.108zm-38.603 148.42-.332-4.506h5.086c4.142 0 7.5-3.357 7.5-7.5s-3.358-7.5-7.5-7.5h-6.191l-.736-10h6.927c4.142 0 7.5-3.357 7.5-7.5s-3.358-7.5-7.5-7.5h-8.032l-.316-4.292c-.203-2.746.718-5.369 2.592-7.386 1.83-1.97 4.29-3.058 6.914-3.125.206-.005 4.33-.003 14.679-.003 1.045 14.195 4.114 55.869 5.036 68.386h-15.86c-5.102.001-9.393-3.986-9.767-9.074zm41.18 16.024c-1.985-26.946-1.328-18.029-2.441-33.138l16.721-16.721c7.898-7.898 12.248-18.4 12.248-29.57v-4.839c0-4.35 3.539-7.889 7.889-7.889h14.066c17.128 0 33.231-6.671 45.344-18.782l12.603-12.604 17.322 17.322c1.49 1.489 2.31 3.471 2.31 5.578v21.213c0 11.171 4.35 21.672 12.249 29.57l18.863 18.864c-.009.117-2.29 31.102-2.282 30.994-.345 4.673-1.369 9.369-3.046 13.959-.104.285-.339.47-.6.47h-24.68c-4.142 0-7.5 3.357-7.5 7.5s3.358 7.5 7.5 7.5h24.68c6.531 0 12.434-4.148 14.689-10.323 1.328-3.634 2.337-7.332 3.021-11.054h10.143c-.579 3.627-1.427 7.243-2.539 10.807-3.64 11.665-14.358 19.503-26.672 19.503h-71.628v-8.933h13.307c4.142 0 7.5-3.357 7.5-7.5s-3.358-7.5-7.5-7.5h-13.875c-7.958 0-14.431 6.474-14.431 14.432v10.07c0 7.957 6.474 14.431 14.431 14.431h40.266c-14.913 9.815-30.583 15-40.511 15-26.947 0-74.711-31.201-77.447-68.36zm77.445 83.36c11.37 0 25.485-4.443 39.04-11.744v6.439c0 9.513 4.907 17.902 12.324 22.767-54.995 48.106-51.436 44.993-51.436 44.993-68.821-60.343-45.266-39.689-51.305-44.984 7.424-4.864 12.337-13.257 12.337-22.776v-6.417c13.682 7.351 27.846 11.722 39.04 11.722zm-54.105 47.758-4.645 4.645v-21.448l12.836 11.255c-2.984 1.278-5.772 3.129-8.191 5.548zm48.927 72.507v-43.584c3.279 1.224 6.918 1.226 10.199.005v43.58h-10.199zm59.284-72.508c-2.43-2.429-5.232-4.286-8.231-5.565l12.876-11.263v21.474z" fill="#807d7d" data-original="#000000"></path><path d="m33.644 81.435c-4.109 1.079-6.979 4.804-6.979 9.058v16.327c0 5.171 4.207 9.378 9.377 9.378h119.112c5.17 0 9.377-4.207 9.377-9.378v-16.328c0-4.254-2.869-7.979-6.979-9.058-4.651-1.222-7.816-5.438-7.699-10.257.112-4.578 3.278-8.588 7.698-9.752 4.11-1.082 6.98-4.807 6.98-9.058v-16.326c0-5.171-4.207-9.377-9.377-9.377h-119.111c-5.171 0-9.377 4.206-9.377 9.377v16.327c0 4.251 2.87 7.976 6.979 9.058 4.42 1.164 7.586 5.174 7.699 9.752.118 4.817-3.048 9.035-7.7 10.257zm8.022 13.001c9.061-4.171 14.925-13.34 14.673-23.625-.238-9.702-6.082-18.365-14.673-22.372v-6.774h31.029c.489 3.67 3.63 6.5 7.433 6.5s6.945-2.83 7.433-6.5h61.971v6.774c-8.592 4.007-14.436 12.67-14.673 22.372-.252 10.284 5.612 19.455 14.673 23.625v6.762h-61.904v-4.033c0-4.143-3.358-7.5-7.5-7.5s-7.5 3.357-7.5 7.5v4.033h-30.962z" fill="#807d7d" data-original="#000000"></path><path d="m80.128 79.664c4.142 0 7.5-3.357 7.5-7.5v-6.5c0-4.143-3.358-7.5-7.5-7.5s-7.5 3.357-7.5 7.5v6.5c0 4.143 3.358 7.5 7.5 7.5z" fill="#807d7d" data-original="#000000"></path><path d="m12.409 142.86h34.181c4.142 0 7.5-3.357 7.5-7.5s-3.358-7.5-7.5-7.5h-31.588v-112.86h161.194v112.86h-12.944c-6.297 0-11.421 5.123-11.421 11.421v27.743l-35.82-35.819c-2.157-2.156-5.025-3.345-8.076-3.345h-26.345c-4.142 0-7.5 3.357-7.5 7.5s3.358 7.5 7.5 7.5h24.864l36.659 36.658c3.951 3.952 9.884 5.19 15.142 3.013 5.211-2.158 8.578-7.197 8.578-12.837v-26.834h11.958c6.841 0 12.406-5.565 12.406-12.406v-118.048c0-6.841-5.566-12.406-12.407-12.406h-166.381c-6.841 0-12.407 5.565-12.407 12.406v118.048c0 6.841 5.566 12.406 12.407 12.406z" fill="#807d7d" data-original="#000000"></path></g></g></svg>