<svg xmlns="http://www.w3.org/2000/svg" version="1.1" xmlns:xlink="http://www.w3.org/1999/xlink" xmlns:svgjs="http://svgjs.com/svgjs" width="512" height="512" x="0" y="0" viewBox="0 0 68 68" style="enable-background:new 0 0 512 512" xml:space="preserve" class=""><g><g xmlns="http://www.w3.org/2000/svg" id="_x38_5"><path d="m5.8 58.5c-2.1 0-3.8 1.7-3.8 3.8 0 2 1.7 3.7 3.8 3.7h56.5c2.1 0 3.8-1.7 3.8-3.8s-1.7-3.8-3.8-3.8h-8c1.2-1.2 2-2.9 2-4.8 0-3.7-3-6.8-6.8-6.8h-3.9v-3h3.9c3.7 0 6.8-3 6.8-6.8 0-3.7-3-6.8-6.8-6.8h-31c-3.7 0-6.8 3-6.8 6.8 0 3.7 3 6.8 6.8 6.8h3.9v3h-3.9c-3.7 0-6.8 3-6.8 6.8 0 1.9.8 3.5 2 4.8h-5.4v-34.6l24.5-19.4c.7-.5 1.7-.5 2.4 0l24.5 19.4v29c0 .6.4 1 1 1s1-.4 1-1v-27.4l2.1 1.7c.4.3 1.1.3 1.4-.2.3-.4.3-1.1-.2-1.4l-28.6-22.7c-1.4-1.1-3.4-1.1-4.9 0l-14.6 11.6v-6.2c0-2.3-1.9-4.2-4.2-4.2s-4.2 1.9-4.2 4.2v4c0 .6.4 1 1 1s1-.4 1-1v-4c0-1.2 1-2.2 2.2-2.2s2.2 1 2.2 2.2v7.8l-4.5 3.5v-2.9c0-.6-.4-1-1-1s-1 .4-1 1v4.5l-5.6 4.4c-.4.3-.5 1-.2 1.4s1 .5 1.4.2l2.1-1.7v33h-.3zm8-21.3c0-2.6 2.1-4.8 4.8-4.8h30.9c2.6 0 4.8 2.1 4.8 4.8s-2.1 4.8-4.8 4.8h-31c-2.6-.1-4.7-2.2-4.7-4.8zm10.6 6.7h19.2v3h-19.2zm-10.6 9.8c0-2.6 2.1-4.8 4.8-4.8h30.9c2.6 0 4.8 2.1 4.8 4.8s-2.1 4.8-4.8 4.8h-7.7c-.6 0-1 .4-1 1s.4 1 1 1h20.5c1 0 1.8.8 1.8 1.8s-.8 1.8-1.8 1.8h-56.5c-1 0-1.8-.8-1.8-1.8s.8-1.8 1.8-1.8h30.6c.6 0 1-.4 1-1s-.4-1-1-1h-17.9c-2.6 0-4.7-2.2-4.7-4.8z" fill="#807d7d" data-original="#000000" class=""></path><path d="m19.8 34.2c-1.7 0-3 1.3-3 3s1.3 3 3 3 3-1.3 3-3-1.4-3-3-3zm0 4c-.6 0-1-.4-1-1s.5-1 1-1 1 .4 1 1-.5 1-1 1z" fill="#807d7d" data-original="#000000" class=""></path><path d="m28.8 40.2c1.7 0 3-1.3 3-3s-1.3-3-3-3-3 1.3-3 3c0 1.6 1.3 3 3 3zm0-4c.5 0 1 .4 1 1s-.4 1-1 1-1-.4-1-1 .4-1 1-1z" fill="#807d7d" data-original="#000000" class=""></path><path d="m50.2 40.2c.6 0 1-.4 1-1v-4c0-.6-.4-1-1-1s-1 .4-1 1v4c0 .5.5 1 1 1z" fill="#807d7d" data-original="#000000" class=""></path><path d="m45.2 40.2c.6 0 1-.4 1-1v-4c0-.6-.4-1-1-1s-1 .4-1 1v4c0 .5.5 1 1 1z" fill="#807d7d" data-original="#000000" class=""></path><path d="m19.8 50.7c-1.7 0-3 1.3-3 3s1.3 3 3 3 3-1.3 3-3-1.4-3-3-3zm0 4c-.6 0-1-.4-1-1s.5-1 1-1 1 .4 1 1-.5 1-1 1z" fill="#807d7d" data-original="#000000" class=""></path><path d="m28.8 50.7c-1.7 0-3 1.3-3 3s1.3 3 3 3 3-1.3 3-3-1.4-3-3-3zm0 4c-.6 0-1-.4-1-1s.5-1 1-1 1 .4 1 1-.5 1-1 1z" fill="#807d7d" data-original="#000000" class=""></path><path d="m50.2 56.7c.6 0 1-.4 1-1v-4c0-.6-.4-1-1-1s-1 .4-1 1v4c0 .5.5 1 1 1z" fill="#807d7d" data-original="#000000" class=""></path><path d="m45.2 56.7c.6 0 1-.4 1-1v-4c0-.6-.4-1-1-1s-1 .4-1 1v4c0 .5.5 1 1 1z" fill="#807d7d" data-original="#000000" class=""></path><path d="m27.2 18.4c0 3.7 3 6.8 6.8 6.8s6.8-3 6.8-6.8-3-6.8-6.8-6.8-6.8 3.1-6.8 6.8zm11.6 0c0 2.6-2.1 4.8-4.8 4.8s-4.8-2.1-4.8-4.8 2.1-4.8 4.8-4.8 4.8 2.2 4.8 4.8z" fill="#807d7d" data-original="#000000" class=""></path></g></g></svg>