<svg xmlns="http://www.w3.org/2000/svg" version="1.1" xmlns:xlink="http://www.w3.org/1999/xlink" xmlns:svgjs="http://svgjs.com/svgjs" width="512" height="512" x="0" y="0" viewBox="0 0 72 72" style="enable-background:new 0 0 512 512" xml:space="preserve" class=""><g><g xmlns="http://www.w3.org/2000/svg"><path d="m42.97 18.19c2.52 0 4.57-2.05 4.57-4.57s-2.05-4.57-4.57-4.57-4.57 2.05-4.57 4.57 2.05 4.57 4.57 4.57zm0-7.64c1.69 0 3.07 1.38 3.07 3.07s-1.38 3.07-3.07 3.07-3.07-1.38-3.07-3.07 1.38-3.07 3.07-3.07z" fill="#807d7d" data-original="#000000" class=""></path><path d="m10.09 28.5-1.29 1.29c-.29.29-.29.77 0 1.06.15.15.34.22.53.22s.38-.07.53-.22l1.29-1.29c.29-.29.29-.77 0-1.06s-.77-.3-1.06 0z" fill="#807d7d" data-original="#000000" class=""></path><path d="m14.36 28.5-1.29 1.29c-.29.29-.29.77 0 1.06.15.15.34.22.53.22s.38-.07.53-.22l1.29-1.29c.29-.29.29-.77 0-1.06s-.76-.3-1.06 0z" fill="#807d7d" data-original="#000000" class=""></path><path d="m18.63 28.5-1.29 1.29c-.29.29-.29.77 0 1.06.15.15.34.22.53.22s.38-.07.53-.22l1.29-1.29c.29-.29.29-.77 0-1.06s-.76-.3-1.06 0z" fill="#807d7d" data-original="#000000" class=""></path><path d="m22.91 28.5-1.29 1.29c-.29.29-.29.77 0 1.06.15.15.34.22.53.22s.38-.07.53-.22l1.29-1.29c.29-.29.29-.77 0-1.06s-.77-.3-1.06 0z" fill="#807d7d" data-original="#000000" class=""></path><path d="m27.18 28.5-1.29 1.29c-.29.29-.29.77 0 1.06.15.15.34.22.53.22s.38-.07.53-.22l1.29-1.29c.29-.29.29-.77 0-1.06s-.77-.3-1.06 0z" fill="#807d7d" data-original="#000000" class=""></path><path d="m31.45 28.5-1.29 1.29c-.29.29-.29.77 0 1.06.15.15.34.22.53.22s.38-.07.53-.22l1.29-1.29c.29-.29.29-.77 0-1.06s-.76-.3-1.06 0z" fill="#807d7d" data-original="#000000" class=""></path><path d="m10.09 33.37-1.29 1.29c-.29.29-.29.77 0 1.06.15.15.34.22.53.22s.38-.07.53-.22l1.29-1.29c.29-.29.29-.77 0-1.06-.3-.3-.77-.3-1.06 0z" fill="#807d7d" data-original="#000000" class=""></path><path d="m14.36 33.37-1.29 1.29c-.29.29-.29.77 0 1.06.15.15.34.22.53.22s.38-.07.53-.22l1.29-1.29c.29-.29.29-.77 0-1.06s-.77-.3-1.06 0z" fill="#807d7d" data-original="#000000" class=""></path><path d="m18.63 33.37-1.29 1.29c-.29.29-.29.77 0 1.06.15.15.34.22.53.22s.38-.07.53-.22l1.29-1.29c.29-.29.29-.77 0-1.06-.29-.3-.76-.3-1.06 0z" fill="#807d7d" data-original="#000000" class=""></path><path d="m22.91 33.37-1.29 1.29c-.29.29-.29.77 0 1.06.15.15.34.22.53.22s.38-.07.53-.22l1.29-1.29c.29-.29.29-.77 0-1.06-.3-.3-.77-.3-1.06 0z" fill="#807d7d" data-original="#000000" class=""></path><path d="m27.18 33.37-1.29 1.29c-.29.29-.29.77 0 1.06.15.15.34.22.53.22s.38-.07.53-.22l1.29-1.29c.29-.29.29-.77 0-1.06s-.77-.3-1.06 0z" fill="#807d7d" data-original="#000000" class=""></path><path d="m31.45 33.37-1.29 1.29c-.29.29-.29.77 0 1.06.15.15.34.22.53.22s.38-.07.53-.22l1.29-1.29c.29-.29.29-.77 0-1.06-.29-.3-.76-.3-1.06 0z" fill="#807d7d" data-original="#000000" class=""></path><path d="m10.09 47.42-1.29 1.29c-.3.29-.3.77 0 1.06.15.15.34.22.53.22s.38-.07.53-.22l1.29-1.29c.29-.29.29-.77 0-1.06s-.77-.29-1.06 0z" fill="#807d7d" data-original="#000000" class=""></path><path d="m14.36 47.42-1.29 1.29c-.29.29-.29.77 0 1.06.15.15.34.22.53.22s.38-.07.53-.22l1.29-1.29c.29-.29.29-.77 0-1.06s-.76-.29-1.06 0z" fill="#807d7d" data-original="#000000" class=""></path><path d="m18.63 47.42-1.29 1.29c-.29.29-.29.77 0 1.06.15.15.34.22.53.22s.38-.07.53-.22l1.29-1.29c.29-.29.29-.77 0-1.06s-.76-.29-1.06 0z" fill="#807d7d" data-original="#000000" class=""></path><path d="m22.91 47.42-1.29 1.29c-.29.29-.29.77 0 1.06.15.15.34.22.53.22s.38-.07.53-.22l1.29-1.29c.29-.29.29-.77 0-1.06s-.77-.29-1.06 0z" fill="#807d7d" data-original="#000000" class=""></path><path d="m27.18 47.42-1.29 1.29c-.29.29-.29.77 0 1.06.15.15.34.22.53.22s.38-.07.53-.22l1.29-1.29c.29-.29.29-.77 0-1.06s-.77-.29-1.06 0z" fill="#807d7d" data-original="#000000" class=""></path><path d="m31.45 47.42-1.29 1.29c-.29.29-.29.77 0 1.06.15.15.34.22.53.22s.38-.07.53-.22l1.29-1.29c.29-.29.29-.77 0-1.06s-.76-.29-1.06 0z" fill="#807d7d" data-original="#000000" class=""></path><path d="m10.09 52.29-1.29 1.29c-.29.29-.29.77 0 1.06.15.15.34.22.53.22s.38-.07.53-.22l1.29-1.29c.29-.29.29-.77 0-1.06s-.77-.29-1.06 0z" fill="#807d7d" data-original="#000000" class=""></path><path d="m14.36 52.29-1.29 1.29c-.29.29-.29.77 0 1.06.15.15.34.22.53.22s.38-.07.53-.22l1.29-1.29c.29-.29.29-.77 0-1.06s-.76-.29-1.06 0z" fill="#807d7d" data-original="#000000" class=""></path><path d="m18.63 52.29-1.29 1.29c-.29.29-.29.77 0 1.06.15.15.34.22.53.22s.38-.07.53-.22l1.29-1.29c.29-.29.29-.77 0-1.06s-.76-.29-1.06 0z" fill="#807d7d" data-original="#000000" class=""></path><path d="m22.91 52.29-1.29 1.29c-.29.29-.29.77 0 1.06.15.15.34.22.53.22s.38-.07.53-.22l1.29-1.29c.29-.29.29-.77 0-1.06s-.77-.29-1.06 0z" fill="#807d7d" data-original="#000000" class=""></path><path d="m27.18 52.29-1.29 1.29c-.29.29-.29.77 0 1.06.15.15.34.22.53.22s.38-.07.53-.22l1.29-1.29c.29-.29.29-.77 0-1.06s-.77-.29-1.06 0z" fill="#807d7d" data-original="#000000" class=""></path><path d="m31.45 52.29-1.29 1.29c-.29.29-.29.77 0 1.06.15.15.34.22.53.22s.38-.07.53-.22l1.29-1.29c.29-.29.29-.77 0-1.06s-.76-.29-1.06 0z" fill="#807d7d" data-original="#000000" class=""></path><path d="m9.33 12.15c.19 0 .38-.07.53-.22l1.29-1.29c.29-.29.29-.77 0-1.06s-.77-.29-1.06 0l-1.29 1.29c-.29.29-.29.77 0 1.06.14.14.33.22.53.22z" fill="#807d7d" data-original="#000000" class=""></path><path d="m13.6 12.15c.19 0 .38-.07.53-.22l1.29-1.29c.29-.29.29-.77 0-1.06s-.77-.29-1.06 0l-1.29 1.29c-.29.29-.29.77 0 1.06.14.14.34.22.53.22z" fill="#807d7d" data-original="#000000" class=""></path><path d="m17.87 12.15c.19 0 .38-.07.53-.22l1.29-1.29c.29-.29.29-.77 0-1.06s-.77-.29-1.06 0l-1.29 1.29c-.29.29-.29.77 0 1.06.15.14.34.22.53.22z" fill="#807d7d" data-original="#000000" class=""></path><path d="m22.15 12.15c.19 0 .38-.07.53-.22l1.29-1.29c.29-.29.29-.77 0-1.06s-.77-.29-1.06 0l-1.29 1.29c-.29.29-.29.77 0 1.06.14.14.33.22.53.22z" fill="#807d7d" data-original="#000000" class=""></path><path d="m26.42 12.15c.19 0 .38-.07.53-.22l1.29-1.29c.29-.29.29-.77 0-1.06s-.77-.29-1.06 0l-1.29 1.29c-.29.29-.29.77 0 1.06.14.14.34.22.53.22z" fill="#807d7d" data-original="#000000" class=""></path><path d="m30.69 12.15c.19 0 .38-.07.53-.22l1.29-1.29c.29-.29.29-.77 0-1.06s-.77-.29-1.06 0l-1.29 1.29c-.29.29-.29.77 0 1.06.15.14.34.22.53.22z" fill="#807d7d" data-original="#000000" class=""></path><path d="m11.15 14.44c-.29-.29-.77-.29-1.06 0l-1.29 1.3c-.29.29-.29.77 0 1.06.15.15.34.22.53.22s.38-.07.53-.22l1.29-1.29c.29-.3.29-.77 0-1.07z" fill="#807d7d" data-original="#000000" class=""></path><path d="m13.6 17.02c.19 0 .38-.07.53-.22l1.29-1.29c.29-.29.29-.77 0-1.06s-.77-.29-1.06 0l-1.29 1.29c-.29.29-.29.77 0 1.06.14.14.34.22.53.22z" fill="#807d7d" data-original="#000000" class=""></path><path d="m17.87 17.02c.19 0 .38-.07.53-.22l1.29-1.29c.29-.29.29-.77 0-1.06s-.77-.29-1.06 0l-1.29 1.29c-.29.29-.29.77 0 1.06.15.14.34.22.53.22z" fill="#807d7d" data-original="#000000" class=""></path><path d="m22.15 17.02c.19 0 .38-.07.53-.22l1.29-1.29c.29-.29.29-.77 0-1.06s-.77-.29-1.06 0l-1.29 1.29c-.29.29-.29.77 0 1.06.14.14.33.22.53.22z" fill="#807d7d" data-original="#000000" class=""></path><path d="m26.42 17.02c.19 0 .38-.07.53-.22l1.29-1.29c.29-.29.29-.77 0-1.06s-.77-.29-1.06 0l-1.29 1.29c-.29.29-.29.77 0 1.06.14.14.34.22.53.22z" fill="#807d7d" data-original="#000000" class=""></path><path d="m30.69 17.02c.19 0 .38-.07.53-.22l1.29-1.29c.29-.29.29-.77 0-1.06s-.77-.29-1.06 0l-1.29 1.29c-.29.29-.29.77 0 1.06.15.14.34.22.53.22z" fill="#807d7d" data-original="#000000" class=""></path><path d="m42.97 37.11c2.52 0 4.57-2.05 4.57-4.57s-2.05-4.57-4.57-4.57-4.57 2.05-4.57 4.57 2.05 4.57 4.57 4.57zm0-7.64c1.69 0 3.07 1.38 3.07 3.07s-1.38 3.07-3.07 3.07-3.07-1.38-3.07-3.07 1.38-3.07 3.07-3.07z" fill="#807d7d" data-original="#000000" class=""></path><path d="m63.29 41.37c-.02-.02-.03-.04-.05-.05-2.7-3.17-6.52-5.1-10.64-5.44v-9.6c0-1.36-1.11-2.47-2.48-2.47h-2.54v-2.31h2.54c1.37 0 2.48-1.11 2.48-2.48v-11.66c0-1.37-1.11-2.48-2.48-2.48h-43.39c-1.37 0-2.48 1.11-2.48 2.48v11.65c0 1.37 1.11 2.48 2.48 2.48h2.54v2.31h-2.54c-1.37 0-2.48 1.11-2.48 2.47v11.66c0 1.37 1.11 2.48 2.48 2.48h2.54v2.32h-2.54c-1.37 0-2.48 1.11-2.48 2.48v11.65c0 1.37 1.11 2.49 2.48 2.49h31.08c1.6 2.74 4.01 4.99 7 6.36.56.26 1.16.5 1.77.69 1.53.48 3.12.73 4.74.73 1.76 0 3.48-.29 5.12-.86h.01c.81-.28 1.62-.64 2.4-1.06.02-.01.05-.03.07-.04 4.96-2.77 8.05-8 8.05-13.68 0-2.98-.84-5.88-2.43-8.38-.36-.61-.79-1.19-1.25-1.74zm-5.41 22.63c-.4.21-.81.4-1.23.56l-6.59-18.42h2.95l3.84 12.66c.1.32.39.53.72.53h.01c.33 0 .62-.22.71-.54l2.68-9.34c.06-.22.02-.46-.11-.65-.6-.83-2.06-3.32-1.6-4.83.23-.75.7-1.31 1.34-1.57.53-.22 1.12-.19 1.65.05.35.42.67.86.96 1.31.45 2.16-.79 5.77-.81 5.83zm-11.54.69c-.2-.08-.41-.15-.61-.24l-6.16-19.4h2.63l5.34 15.93zm1.96-6.17-4.51-13.47h.37c.41 0 .75-.34.75-.75s-.34-.75-.75-.75h-1.41-3.16c2.62-3.88 7-6.24 11.73-6.24 3.47 0 6.77 1.28 9.33 3.54-.21.04-.42.1-.63.18-1.06.43-1.84 1.33-2.2 2.52-.66 2.15.98 4.89 1.61 5.84l-1.88 6.55-2.97-9.8h.35c.41 0 .75-.34.75-.75s-.34-.75-.75-.75h-7.18c-.41 0-.75.34-.75.75s.34.75.75.75h.73l1.95 5.45zm-42.55-39.51v-11.65c0-.54.44-.98.98-.98h43.4c.54 0 .98.44.98.98v11.65c0 .54-.44.98-.98.98h-43.4c-.54 0-.98-.44-.98-.98zm5.01 2.48h35.32v2.31h-35.32zm-5.01 16.45v-11.66c0-.54.44-.97.98-.97h3.27.01s.01 0 .01 0h36.8.01s.01 0 .01 0h3.28c.54 0 .98.44.98.97v9.54c-3.35.05-6.52 1.16-9.12 3.1h-35.25c-.54-.01-.98-.45-.98-.98zm5.01 2.47h29.47c-.7.7-1.34 1.48-1.91 2.32h-27.56zm-4.03 17.43c-.54 0-.98-.44-.98-.99v-11.64c0-.54.44-.98.98-.98h30.71c-1.16 2.22-1.77 4.71-1.77 7.23 0 2.24.49 4.4 1.37 6.38zm30.43-6.38c0-1.9.4-3.77 1.13-5.5l5.56 17.52c-4.11-2.56-6.69-7.1-6.69-12.02zm10.6 13.7 1.28-3.95v-.01l2.21-7.23 3.97 11.09c-2.41.69-5.02.72-7.46.1zm12.08-2.4 3.98-12.69c.04-.1.56-1.63.83-3.39.55 1.52.83 3.13.83 4.78 0 4.48-2.12 8.65-5.64 11.3z" fill="#807d7d" data-original="#000000" class=""></path><path d="m67.68 40.27c-2.11-4.68-6.11-6.8-9.08-7.75-.4-.13-.82.09-.94.49-.13.39.09.82.49.94 2.69.86 6.29 2.76 8.17 6.94.13.28.4.44.68.44.1 0 .21-.02.31-.07.38-.17.54-.61.37-.99z" fill="#807d7d" data-original="#000000" class=""></path><path d="m55.07 33.29c.02 0 .33.03.85.11.04.01.08.01.13.01.36 0 .68-.26.74-.63.07-.41-.21-.8-.62-.86-.63-.11-1-.13-1-.13-.41-.04-.77.28-.8.7-.02.41.29.77.7.8z" fill="#807d7d" data-original="#000000" class=""></path></g></g></svg>