<svg xmlns="http://www.w3.org/2000/svg" viewBox="0 0 96 96"><rect width="96" height="96" fill="#fff" opacity="0"></rect><path fill="#807d7d" d="M93,16.737H88.318V12.056a1,1,0,1,0-2,0v4.681H81.637a1,1,0,0,0,0,2h4.681V23.42a1,1,0,0,0,2,0V18.737H93a1,1,0,0,0,0-2Z"></path><path fill="#807d7d" d="M88.725,34.712H79.666v-8.82a1,1,0,0,0-1-1h-8.7v-8.7a1,1,0,0,0-1-1H3a1,1,0,0,0-1,1V64.423a1,1,0,0,0,1,1h8.7v8.7a1,1,0,0,0,1,1h9.06v8.82a1,1,0,0,0,1,1H88.725a1,1,0,0,0,1-1V35.712A1,1,0,0,0,88.725,34.712Zm-1,12.127H23.761V36.712H87.725ZM4,63.423V17.19H67.965v7.7H12.7a1,1,0,0,0-1,1V63.423Zm9.7,9.7V26.892H77.666v7.82h-54.9a1,1,0,0,0-1,1V73.124Zm10.06,9.82V48.839H87.725V82.944Z"></path><circle fill="#807d7d" cx="28.654" cy="41.757" r="1.891"></circle><circle fill="#807d7d" cx="34.328" cy="41.757" r="1.891"></circle><circle fill="#807d7d" cx="40.003" cy="41.757" r="1.891"></circle></svg>