<svg xmlns="http://www.w3.org/2000/svg" version="1.1" xmlns:xlink="http://www.w3.org/1999/xlink" xmlns:svgjs="http://svgjs.com/svgjs" width="512" height="512" x="0" y="0" viewBox="0 0 28444 28444" style="enable-background:new 0 0 512 512" xml:space="preserve" class=""><g><g xmlns="http://www.w3.org/2000/svg" id="Layer_x0020_1"><g id="_229961624" fill-rule="nonzero"><path d="m10825 8232c0 184-149 333-333 333s-333-149-333-333v-4301c0-184 149-333 333-333h11667c184 0 333 149 333 333v20583c0 184-149 333-333 333h-11667c-184 0-333-149-333-333v-4301c0-184 149-333 333-333s333 149 333 333v3968h11000v-19917h-11000z" fill="#807d7d" data-original="#000000" class=""></path><path d="m6286 14556c-184 0-333-149-333-333s149-333 333-333h10612c184 0 333 149 333 333s-149 333-333 333z" fill="#807d7d" data-original="#000000" class=""></path><path d="m12283 19309c-130 130-341 130-471 0s-130-341 0-471l4852-4852c130-130 341-130 471 0s130 341 0 471z" fill="#807d7d" data-original="#000000" class=""></path><path d="m11811 9606c-130-130-130-341 0-471s341-130 471 0l4852 4852c130 130 130 341 0 471s-341 130-471 0z" fill="#807d7d" data-original="#000000" class=""></path></g></g></g></svg>