<svg xmlns="http://www.w3.org/2000/svg" viewBox="0 0 96 96"><rect width="96" height="96" fill="#fff" opacity="0"></rect><path fill="#807d7d" d="M48,83.476A35.476,35.476,0,1,1,83.477,48,35.517,35.517,0,0,1,48,83.476Zm0-68.952A33.476,33.476,0,1,0,81.477,48,33.514,33.514,0,0,0,48,14.524Zm0,64.7a31.243,31.243,0,0,1-8.821-1.272,1,1,0,0,1-.664-1.285l9.069-26.353a1,1,0,0,1,.937-.675,1.029,1.029,0,0,1,.949.657l9.291,25.454a1.911,1.911,0,0,0,.132.242,1,1,0,0,1-.523,1.462A31.173,31.173,0,0,1,48,79.228Zm-7.247-2.913a29.347,29.347,0,0,0,15.936-.406L48.558,53.635ZM34.809,76.2a1.006,1.006,0,0,1-.437-.1A31.228,31.228,0,0,1,19.477,35.291a.959.959,0,0,1,.948-.592,1,1,0,0,1,.9.656L35.748,74.86a1,1,0,0,1-.939,1.343ZM20.353,38.512a29.245,29.245,0,0,0,12.613,34.56ZM63.2,75.125A1,1,0,0,1,62.25,73.8l9.233-26.693a27.718,27.718,0,0,0,2.244-10.5,22.293,22.293,0,0,0-.194-2.975,1,1,0,0,1,1.867-.614A31.233,31.233,0,0,1,63.7,74.99,1,1,0,0,1,63.2,75.125ZM75.654,38.537a31,31,0,0,1-2.3,9.266L65.093,71.7A29.23,29.23,0,0,0,75.654,38.537ZM40.487,67.568a1,1,0,0,1-.948-.682L28.532,34.144a1,1,0,0,1,.9-1.317c1.764-.091,3.377-.279,3.393-.281a.234.234,0,0,0,.244-.287c-.021-.227-.166-.217-.262-.213-.182.015-4.952.386-8.116.386-.576,0-1.254-.015-1.977-.038a1,1,0,0,1-.8-1.549,31.218,31.218,0,0,1,47.178-5.874,1,1,0,0,1,.245,1.128,1.016,1.016,0,0,1-.981.608l-.156-.012c-.058,0-.115-.011-.175-.011a4.245,4.245,0,0,0-4.075,4.365c0,2.012,1.14,3.853,2.461,5.985l.359.581a16.841,16.841,0,0,1,2.641,8.859,29.273,29.273,0,0,1-2.369,10.138l-2.989,10a1,1,0,0,1-1.906.031L51.22,34.144a1,1,0,0,1,.9-1.317c1.761-.091,3.377-.279,3.393-.281a.233.233,0,0,0,.243-.286c-.02-.228-.167-.218-.261-.214-.183.015-4.953.386-8.116.386-2.975,0-7.833-.371-8.038-.387-.057,0-.23-.013-.245.261-.013.223.095.23.189.236s1.593.194,3.169.286a1,1,0,0,1,.881.655l4.71,12.9a.993.993,0,0,1,.009.659L41.436,66.884a1,1,0,0,1-.948.684ZM30.842,34.741l9.641,28.677,5.56-16.674L41.677,34.781c-1.372-.1-2.522-.242-2.577-.249a2.148,2.148,0,0,1-2-2.345,2.2,2.2,0,0,1,2.377-2.137c.067,0,5.005.382,7.9.382,3.084,0,7.93-.377,7.978-.381a2.184,2.184,0,0,1,2.392,2.032,2.234,2.234,0,0,1-2,2.45c-.053.006-.981.114-2.214.208l9.5,28.277,2.112-7.057a27.634,27.634,0,0,0,2.259-9.487,15.011,15.011,0,0,0-2.361-7.84l-.339-.548c-1.42-2.292-2.761-4.456-2.761-7.037a6.358,6.358,0,0,1,4.117-6.026,29.218,29.218,0,0,0-41.417,5.409c3.115-.028,7.974-.377,8.023-.381a2.178,2.178,0,0,1,2.391,2.032,2.234,2.234,0,0,1-2,2.45C33,34.539,32.077,34.647,30.842,34.741Z"></path></svg>