<svg xmlns="http://www.w3.org/2000/svg" version="1.1" xmlns:xlink="http://www.w3.org/1999/xlink" xmlns:svgjs="http://svgjs.com/svgjs" width="512" height="512" x="0" y="0" viewBox="0 0 72 72" style="enable-background:new 0 0 512 512" xml:space="preserve" class=""><g><g xmlns="http://www.w3.org/2000/svg"><path d="m65.5 22.91c1.24 0 2.25-1.01 2.25-2.25v-10.13c0-1.24-1.01-2.25-2.25-2.25h-42.97c-1.24 0-2.25 1.01-2.25 2.25v10.13c0 1.24 1.01 2.25 2.25 2.25h1.1v3.06h-1.1c-1.24 0-2.25 1.01-2.25 2.25v6.76c-5.12.26-9.22 4.43-9.34 9.59-3.97 1.34-6.69 5.09-6.69 9.31 0 5.42 4.41 9.84 9.84 9.84 2.18 0 4.3-.73 6.02-2.07 1.72 1.34 3.84 2.07 6.02 2.07 2.38 0 4.63-.84 6.41-2.38 1.78 1.54 4.03 2.38 6.41 2.38 3.87 0 7.22-2.26 8.82-5.52h17.73c1.24 0 2.25-1.01 2.25-2.25v-10.12c0-1.24-1.01-2.25-2.25-2.25h-1.1v-2.98h1.1c1.24 0 2.25-1.01 2.25-2.25v-10.13c0-1.24-1.01-2.25-2.25-2.25h-1.1v-3.06zm-43.72-2.25v-10.13c0-.41.34-.75.75-.75h42.97c.41 0 .75.34.75.75v10.13c0 .41-.34.75-.75.75h-1.85-39.27-1.85c-.42 0-.75-.34-.75-.75zm17.17 41.56c-2.22 0-4.31-.86-5.88-2.43-.15-.15-.34-.22-.53-.22s-.38.07-.53.22c-1.57 1.57-3.66 2.43-5.88 2.43-2.03 0-3.99-.75-5.52-2.1-.28-.25-.71-.25-.99 0-1.53 1.36-3.49 2.1-5.52 2.1-4.6 0-8.34-3.74-8.34-8.34 0-3.75 2.53-7.05 6.15-8.04.34-.09.56-.4.55-.75l-.02-.3c0-4.6 3.74-8.34 8.34-8.34 2.56 0 4.95 1.16 6.55 3.19.25.32.72.38 1.05.13 1.33-1.03 2.91-1.58 4.58-1.58 3.9 0 7.17 3.05 7.44 6.94.02.32.25.6.57.67 3.72.93 6.32 4.25 6.32 8.08-.01 4.6-3.75 8.34-8.34 8.34zm27.3-16.39v10.12c0 .41-.34.75-.75.75h-17.13c.27-.89.42-1.84.42-2.82 0-3.8-2.16-7.17-5.45-8.8h20.32 1.85c.4 0 .74.34.74.75zm-3.35-2.25h-21.23c-.26-1.08-.72-2.09-1.33-2.98h22.56zm3.35-15.36v10.13c0 .41-.34.75-.75.75h-1.53c-.1-.05-.21-.08-.32-.08h-24.69c-1.6-1.45-3.71-2.33-6.01-2.33-1.77 0-3.46.51-4.92 1.48-1.64-1.8-3.85-2.91-6.26-3.16v-6.79c0-.41.34-.75.75-.75h1.85 39.27 1.85c.42 0 .76.34.76.75zm-3.35-2.25h-37.77v-3.06h37.77z" fill="#807d7d" data-original="#000000" class=""></path><path d="m24.97 14.79c.41 0 .75-.34.75-.75v-1.52c0-.41-.34-.75-.75-.75s-.75.34-.75.75v1.52c0 .42.34.75.75.75z" fill="#807d7d" data-original="#000000" class=""></path><path d="m28.41 14.79c.41 0 .75-.34.75-.75v-1.52c0-.41-.34-.75-.75-.75s-.75.34-.75.75v1.52c0 .42.34.75.75.75z" fill="#807d7d" data-original="#000000" class=""></path><path d="m31.85 14.79c.41 0 .75-.34.75-.75v-1.52c0-.41-.34-.75-.75-.75s-.75.34-.75.75v1.52c0 .42.34.75.75.75z" fill="#807d7d" data-original="#000000" class=""></path><path d="m35.29 14.79c.41 0 .75-.34.75-.75v-1.52c0-.41-.34-.75-.75-.75s-.75.34-.75.75v1.52c0 .42.34.75.75.75z" fill="#807d7d" data-original="#000000" class=""></path><path d="m24.97 19.42c.41 0 .75-.34.75-.75v-1.52c0-.41-.34-.75-.75-.75s-.75.34-.75.75v1.52c0 .41.34.75.75.75z" fill="#807d7d" data-original="#000000" class=""></path><path d="m28.41 19.42c.41 0 .75-.34.75-.75v-1.52c0-.41-.34-.75-.75-.75s-.75.34-.75.75v1.52c0 .41.34.75.75.75z" fill="#807d7d" data-original="#000000" class=""></path><path d="m31.85 19.42c.41 0 .75-.34.75-.75v-1.52c0-.41-.34-.75-.75-.75s-.75.34-.75.75v1.52c0 .41.34.75.75.75z" fill="#807d7d" data-original="#000000" class=""></path><path d="m35.29 19.42c.41 0 .75-.34.75-.75v-1.52c0-.41-.34-.75-.75-.75s-.75.34-.75.75v1.52c0 .41.34.75.75.75z" fill="#807d7d" data-original="#000000" class=""></path><path d="m60.92 18.64c1.59 0 2.88-1.29 2.88-2.88s-1.29-2.88-2.88-2.88-2.88 1.29-2.88 2.88c0 1.58 1.3 2.88 2.88 2.88zm0-4.26c.76 0 1.38.62 1.38 1.38s-.62 1.38-1.38 1.38-1.38-.62-1.38-1.38.62-1.38 1.38-1.38z" fill="#807d7d" data-original="#000000" class=""></path><path d="m52.84 18.64c1.59 0 2.88-1.29 2.88-2.88s-1.29-2.88-2.88-2.88-2.88 1.29-2.88 2.88c0 1.58 1.3 2.88 2.88 2.88zm0-4.26c.76 0 1.38.62 1.38 1.38s-.62 1.38-1.38 1.38-1.38-.62-1.38-1.38.62-1.38 1.38-1.38z" fill="#807d7d" data-original="#000000" class=""></path><path d="m39.8 16.35h6.97c.41 0 .75-.34.75-.75s-.34-.75-.75-.75h-6.97c-.41 0-.75.34-.75.75s.34.75.75.75z" fill="#807d7d" data-original="#000000" class=""></path><path d="m24.97 29.46c-.41 0-.75.34-.75.75v1.52c0 .41.34.75.75.75s.75-.34.75-.75v-1.52c0-.41-.33-.75-.75-.75z" fill="#807d7d" data-original="#000000" class=""></path><path d="m28.41 29.46c-.41 0-.75.34-.75.75v1.52c0 .41.34.75.75.75s.75-.34.75-.75v-1.52c0-.41-.33-.75-.75-.75z" fill="#807d7d" data-original="#000000" class=""></path><path d="m31.85 29.46c-.41 0-.75.34-.75.75v1.52c0 .41.34.75.75.75s.75-.34.75-.75v-1.52c0-.41-.33-.75-.75-.75z" fill="#807d7d" data-original="#000000" class=""></path><path d="m35.29 29.46c-.41 0-.75.34-.75.75v1.52c0 .41.34.75.75.75s.75-.34.75-.75v-1.52c0-.41-.33-.75-.75-.75z" fill="#807d7d" data-original="#000000" class=""></path><path d="m60.92 30.57c-1.59 0-2.88 1.29-2.88 2.88s1.29 2.88 2.88 2.88 2.88-1.29 2.88-2.88-1.29-2.88-2.88-2.88zm0 4.25c-.76 0-1.38-.62-1.38-1.38s.62-1.38 1.38-1.38 1.38.62 1.38 1.38-.62 1.38-1.38 1.38z" fill="#807d7d" data-original="#000000" class=""></path><path d="m52.84 30.57c-1.59 0-2.88 1.29-2.88 2.88s1.29 2.88 2.88 2.88 2.88-1.29 2.88-2.88-1.29-2.88-2.88-2.88zm0 4.25c-.76 0-1.38-.62-1.38-1.38s.62-1.38 1.38-1.38 1.38.62 1.38 1.38-.62 1.38-1.38 1.38z" fill="#807d7d" data-original="#000000" class=""></path><path d="m46.78 32.53h-6.98c-.41 0-.75.34-.75.75s.34.75.75.75h6.97c.41 0 .75-.34.75-.75s-.33-.75-.74-.75z" fill="#807d7d" data-original="#000000" class=""></path><path d="m60.92 48.17c-1.59 0-2.88 1.29-2.88 2.88s1.29 2.88 2.88 2.88 2.88-1.29 2.88-2.88-1.29-2.88-2.88-2.88zm0 4.26c-.76 0-1.38-.62-1.38-1.38s.62-1.38 1.38-1.38 1.38.62 1.38 1.38-.62 1.38-1.38 1.38z" fill="#807d7d" data-original="#000000" class=""></path><path d="m52.84 48.17c-1.59 0-2.88 1.29-2.88 2.88s1.29 2.88 2.88 2.88 2.88-1.29 2.88-2.88-1.29-2.88-2.88-2.88zm0 4.26c-.76 0-1.38-.62-1.38-1.38s.62-1.38 1.38-1.38 1.38.62 1.38 1.38-.62 1.38-1.38 1.38z" fill="#807d7d" data-original="#000000" class=""></path><path d="m35.47 51.27c-.78 0-1.42-.64-1.42-1.42s.64-1.42 1.42-1.42c.66 0 1.24.47 1.39 1.11.09.41.5.66.9.57s.66-.49.57-.9c-.3-1.34-1.47-2.28-2.85-2.28-1.61 0-2.92 1.31-2.92 2.92s1.31 2.92 2.92 2.92c.78 0 1.42.64 1.42 1.42s-.64 1.42-1.42 1.42c-.7 0-1.3-.52-1.4-1.2-.06-.41-.45-.69-.85-.63-.41.06-.69.45-.63.85.22 1.41 1.46 2.48 2.89 2.48 1.61 0 2.92-1.31 2.92-2.92-.01-1.61-1.32-2.92-2.94-2.92z" fill="#807d7d" data-original="#000000" class=""></path><path d="m22.22 47.2c-.39-.15-.82.04-.97.43l-2.58 6.66-2.58-6.66c-.15-.39-.58-.58-.97-.43s-.58.58-.43.97l3.28 8.46c.11.29.39.48.7.48s.59-.19.7-.48l3.28-8.46c.15-.38-.04-.82-.43-.97z" fill="#807d7d" data-original="#000000" class=""></path><path d="m28.05 46.93h-2.55c-.41 0-.75.34-.75.75v.23 3.77 4.69c0 .41.34.75.75.75s.75-.34.75-.75v-3.94h1.8c1.52 0 2.75-1.23 2.75-2.75s-1.23-2.75-2.75-2.75zm0 3.99h-1.8v-2.5h1.8c.69 0 1.25.56 1.25 1.25s-.56 1.25-1.25 1.25z" fill="#807d7d" data-original="#000000" class=""></path><path d="m24.37 38.96c-4.17-1.36-6.61.14-7.92 1.63-.27.31-.24.79.07 1.06.14.13.32.19.49.19.21 0 .42-.09.56-.26 1.47-1.68 3.6-2.08 6.33-1.19.39.13.82-.09.94-.48.14-.39-.07-.82-.47-.95z" fill="#807d7d" data-original="#000000" class=""></path><path d="m15.34 44.66c.06.01.11.02.17.02.34 0 .65-.23.73-.58.01-.02.07-.29.22-.67s-.03-.82-.42-.97c-.38-.16-.82.03-.97.42-.2.51-.28.85-.29.89-.09.4.16.8.56.89z" fill="#807d7d" data-original="#000000" class=""></path></g></g></svg>