<svg xmlns="http://www.w3.org/2000/svg" version="1.1" xmlns:xlink="http://www.w3.org/1999/xlink" xmlns:svgjs="http://svgjs.com/svgjs" width="512" height="512" x="0" y="0" viewBox="0 0 74 74" style="enable-background:new 0 0 512 512" xml:space="preserve" class=""><g><g xmlns="http://www.w3.org/2000/svg"><path d="m12.58 11.02c-1.32 0-2.39 1.08-2.39 2.41 0 1.32 1.07 2.39 2.39 2.39s2.39-1.07 2.39-2.39c0-1.33-1.07-2.41-2.39-2.41zm0 3.8c-.77 0-1.39-.63-1.39-1.39 0-.78.62-1.41 1.39-1.41.75 0 1.39.65 1.39 1.41s-.64 1.39-1.39 1.39z" fill="#807d7d" data-original="#000000" class=""></path><path d="m21.71 11.02c-1.32 0-2.39 1.08-2.39 2.41 0 1.32 1.07 2.39 2.39 2.39s2.39-1.07 2.39-2.39c0-1.33-1.07-2.41-2.39-2.41zm0 3.8c-.77 0-1.39-.63-1.39-1.39 0-.78.62-1.41 1.39-1.41.75 0 1.39.65 1.39 1.41s-.64 1.39-1.39 1.39z" fill="#807d7d" data-original="#000000" class=""></path><path d="m31.02 11.02c-1.32 0-2.39 1.08-2.39 2.41 0 1.32 1.07 2.39 2.39 2.39s2.39-1.07 2.39-2.39c0-1.33-1.07-2.41-2.39-2.41zm0 3.8c-.77 0-1.39-.63-1.39-1.39 0-.78.62-1.41 1.39-1.41.75 0 1.39.65 1.39 1.41s-.64 1.39-1.39 1.39z" fill="#807d7d" data-original="#000000" class=""></path><path d="m54.12 10.12c-.28 0-.5.22-.5.5v5.6c0 .28.22.5.5.5s.5-.22.5-.5v-5.6c0-.28-.22-.5-.5-.5z" fill="#807d7d" data-original="#000000" class=""></path><path d="m49.39 10.12c-.28 0-.5.22-.5.5v5.6c0 .28.22.5.5.5s.5-.22.5-.5v-5.6c0-.28-.22-.5-.5-.5z" fill="#807d7d" data-original="#000000" class=""></path><path d="m44.66 10.12c-.28 0-.5.22-.5.5v5.6c0 .28.22.5.5.5s.5-.22.5-.5v-5.6c0-.28-.22-.5-.5-.5z" fill="#807d7d" data-original="#000000" class=""></path><path d="m39.94 10.12c-.28 0-.5.22-.5.5v5.6c0 .28.22.5.5.5s.5-.22.5-.5v-5.6c0-.28-.23-.5-.5-.5z" fill="#807d7d" data-original="#000000" class=""></path><path d="m12.58 31.72c-1.32 0-2.39 1.08-2.39 2.41 0 1.32 1.07 2.39 2.39 2.39s2.39-1.07 2.39-2.39-1.07-2.41-2.39-2.41zm0 3.81c-.77 0-1.39-.63-1.39-1.39 0-.78.62-1.41 1.39-1.41.75 0 1.39.65 1.39 1.41 0 .75-.64 1.39-1.39 1.39z" fill="#807d7d" data-original="#000000" class=""></path><path d="m21.71 31.72c-1.32 0-2.39 1.08-2.39 2.41 0 1.32 1.07 2.39 2.39 2.39s2.39-1.07 2.39-2.39-1.07-2.41-2.39-2.41zm0 3.81c-.77 0-1.39-.63-1.39-1.39 0-.78.62-1.41 1.39-1.41.75 0 1.39.65 1.39 1.41 0 .75-.64 1.39-1.39 1.39z" fill="#807d7d" data-original="#000000" class=""></path><path d="m31.02 31.72c-1.32 0-2.39 1.08-2.39 2.41 0 1.32 1.07 2.39 2.39 2.39s2.39-1.07 2.39-2.39-1.07-2.41-2.39-2.41zm0 3.81c-.77 0-1.39-.63-1.39-1.39 0-.78.62-1.41 1.39-1.41.75 0 1.39.65 1.39 1.41 0 .75-.64 1.39-1.39 1.39z" fill="#807d7d" data-original="#000000" class=""></path><path d="m39.94 37.43c.28 0 .5-.22.5-.5v-5.6c0-.28-.22-.5-.5-.5s-.5.22-.5.5v5.6c0 .27.22.5.5.5z" fill="#807d7d" data-original="#000000" class=""></path><path d="m12.58 52.43c-1.32 0-2.39 1.08-2.39 2.41 0 1.32 1.07 2.39 2.39 2.39s2.39-1.07 2.39-2.39c0-1.33-1.07-2.41-2.39-2.41zm0 3.8c-.77 0-1.39-.63-1.39-1.39 0-.78.62-1.41 1.39-1.41.75 0 1.39.65 1.39 1.41s-.64 1.39-1.39 1.39z" fill="#807d7d" data-original="#000000" class=""></path><path d="m21.71 52.43c-1.32 0-2.39 1.08-2.39 2.41 0 1.32 1.07 2.39 2.39 2.39s2.39-1.07 2.39-2.39c0-1.33-1.07-2.41-2.39-2.41zm0 3.8c-.77 0-1.39-.63-1.39-1.39 0-.78.62-1.41 1.39-1.41.75 0 1.39.65 1.39 1.41s-.64 1.39-1.39 1.39z" fill="#807d7d" data-original="#000000" class=""></path><path d="m31.02 52.43c-1.32 0-2.39 1.08-2.39 2.41 0 1.32 1.07 2.39 2.39 2.39s2.39-1.07 2.39-2.39c0-1.33-1.07-2.41-2.39-2.41zm0 3.8c-.77 0-1.39-.63-1.39-1.39 0-.78.62-1.41 1.39-1.41.75 0 1.39.65 1.39 1.41s-.64 1.39-1.39 1.39z" fill="#807d7d" data-original="#000000" class=""></path><path d="m60.32 36.33v-7.44c0-1.9-1.54-3.44-3.44-3.44h-1.26v-3.36h1.25c1.9 0 3.44-1.54 3.44-3.44v-10.46c0-1.9-1.54-3.44-3.44-3.44h-49.92c-1.9 0-3.44 1.54-3.44 3.44v10.47c0 1.9 1.54 3.44 3.44 3.44h1.33v3.36h-1.33c-1.9 0-3.44 1.54-3.44 3.44v10.47c0 1.89 1.54 3.43 3.44 3.43h1.33v3.36h-1.33c-1.9 0-3.44 1.54-3.44 3.44v10.47c0 1.9 1.54 3.44 3.44 3.44h3.65v1.58c0 1.15.94 2.09 2.09 2.09h6.27c1.15 0 2.09-.94 2.09-2.09v-1.59h19.42c3.16 3.52 7.72 5.75 12.81 5.75 9.49 0 17.21-7.73 17.21-17.23 0-6.98-4.18-12.99-10.17-15.69zm-55.31-17.67v-10.47c0-1.07.87-1.94 1.94-1.94h49.93c1.07 0 1.94.87 1.94 1.94v10.47c0 1.07-.87 1.94-1.94 1.94h-49.93c-1.07-.01-1.94-.88-1.94-1.94zm4.27 3.43h45.34v3.36h-45.34zm-4.27 17.28v-10.48c0-1.07.87-1.94 1.94-1.94h49.93c1.07 0 1.94.87 1.94 1.94v6.85c-1.34-.46-2.74-.75-4.2-.86v-3.55c0-.28-.22-.5-.5-.5s-.5.22-.5.5v3.5c-.11 0-.22-.02-.34-.02-1.16 0-2.29.12-3.39.34v-3.82c0-.28-.22-.5-.5-.5s-.5.22-.5.5v4.07c-1.31.34-2.56.82-3.73 1.45v-5.52c0-.28-.22-.5-.5-.5s-.5.22-.5.5v5.6c0 .16.08.3.2.39-1.74 1.05-3.28 2.4-4.54 3.98h-32.87c-1.07-.01-1.94-.87-1.94-1.93zm4.27 3.42h29.48c-.67 1.05-1.22 2.17-1.66 3.36h-27.82zm10.27 22.3c0 .33-.27.59-.59.59h-6.27c-.33 0-.59-.27-.59-.59v-1.59h7.45zm.77-3.09c-.01 0-.01 0-.01 0h-8.95c-.01 0-.01 0-.01 0h-4.4c-1.07 0-1.94-.87-1.94-1.94v-10.47c0-1.07.87-1.94 1.94-1.94h29.68c-.37 1.4-.58 2.85-.58 4.36 0 3.72 1.2 7.17 3.22 9.99zm32.96 5.75c-8.67 0-15.73-7.06-15.73-15.73 0-8.66 7.06-15.71 15.73-15.71 8.66 0 15.71 7.05 15.71 15.71 0 8.67-7.05 15.73-15.71 15.73z" fill="#807d7d" data-original="#000000" class=""></path><path d="m62.78 52.21c-.28 0-.5.22-.5.5 0 4.97-4.04 9.01-9 9.01-4.97 0-9.01-4.04-9.01-9.01 0-4.96 4.04-9 9.01-9 2.03 0 3.95.68 5.52 1.91l-3.01.28c-.28.03-.48.27-.45.54.03.28.27.48.54.45l4.18-.39c.28-.03.48-.27.45-.54l-.39-4.18c-.03-.28-.27-.48-.54-.45-.28.03-.48.27-.45.54l.28 2.95c-1.75-1.37-3.88-2.12-6.13-2.12-5.52 0-10.01 4.49-10.01 10 0 5.52 4.49 10.01 10.01 10.01 5.51 0 10-4.49 10-10.01 0-.26-.23-.49-.5-.49z" fill="#807d7d" data-original="#000000" class=""></path></g></g></svg>