<svg xmlns="http://www.w3.org/2000/svg" viewBox="0 0 1397 321" xml:space="preserve"><path fill="#FE5403" d="M142.6 1c.4 73 .4 145.9.4 219.1a202.2 202.2 0 0 1-47.3 8c-12.1.5-24.3.7-36.2-2.6a64.9 64.9 0 0 1-47.8-45.3c-8.5-28.2-7.1-56 8.6-81.7 11-17.8 27.9-26 48.4-27.5a74.5 74.5 0 0 1 39.2 8V7c9.9-1.8 19.3-3.5 29-5.5 1.8-.4 3.5-.4 5.7-.4M108 124.5c0-3.7-.3-7.3 0-11 .3-3.1-.9-5.1-3.7-6-6.6-2.2-13.1-5.2-20-6.1-19-2.6-32 5.6-37.8 23.2a74.5 74.5 0 0 0-1.1 43.8c4.6 16.5 15.2 27.4 32.8 29 8.4.8 17-.7 25.4-1 3.7-.2 4.5-2 4.5-5.4-.2-21.9-.1-43.7-.1-66.5z"/><path fill="#05A2C6" d="M834.6 1c.3 4.8 0 9.6 0 14.4v59.7c6.6-1.3 12.5-2.9 18.5-3.5a75 75 0 0 1 45.2 6.8c16 8.8 23 23.4 25.6 40.7a143 143 0 0 1 1.6 19.8c.2 27.2.1 54.3 0 81.5 0 1.3 0 2.6-.2 4.2h-35v-5c0-26.7 0-53.4-.2-80 0-5.8-.9-11.6-2-17.3-2.9-13.4-10.2-20.5-23.6-21-9-.2-18.1 1.8-27.2 3-3.3.4-2.7 3.1-2.7 5.4v115h-35.3v-5.8l-.1-207c0-4.1 1-5.6 5.4-6.1 8-1 16-2.7 24.2-4.5 2-.3 3.6-.3 5.8-.3z"/><path fill="#FE5404" d="M401.3 77.7c25 13.2 35.5 35 38.3 61.5a94 94 0 0 1-8.5 51.5C418 218 390 231.3 360.6 228.6c-40-3.7-62-34.6-64.8-70a92.4 92.4 0 0 1 8.5-50A67 67 0 0 1 363.7 70a72 72 0 0 1 37.6 7.6m-70 69c0 11 1 22 5.9 32.1 5.3 10.8 13.5 18 26 19.2 13.3 1.3 25-2.2 32-14a67.7 67.7 0 0 0 2-66c-5.7-12-16.2-17.4-29.7-17.4a31.9 31.9 0 0 0-29.8 18.3 66.5 66.5 0 0 0-6.4 27.8z"/><path fill="#04A2C5" d="M1102.5 166.4c-5.5 30-20.8 51.3-50.8 59.8a70.8 70.8 0 0 1-90.7-57 93.1 93.1 0 0 1 9-64.4c14.3-25 41.3-38 70.2-34.4 30.8 4 50.5 21.2 59.7 50.6 4.6 14.7 5 29.8 2.6 45.4m-78.4-65.2a32 32 0 0 0-24.5 21.9 72.1 72.1 0 0 0 1.2 55c6 14 17 20.7 32.4 20.1 14.7-.6 24.3-8.3 29.7-21.4a74 74 0 0 0 3.2-44.6c-4.8-23-17.7-32.7-42-31z"/><path fill="#FE5404" d="M697.6 100c-15.2-.8-29.6 1-44.1 5.3l-4.6-28.2c17-5.4 34.3-8 51.8-6.8 8.5.6 17.2 2.2 25.3 5a40.8 40.8 0 0 1 27.8 32c1.7 7.5 2.5 15.4 2.6 23.2.3 28.8 0 57.6.2 86.5 0 3.6-1 4.8-4.5 5.4a248 248 0 0 1-72.5 4.6c-13.3-1.6-25.8-5.4-35-16.2-22.7-27-8.8-67.1 26.4-75.7a104.1 104.1 0 0 1 50-.2c.3 0 .6 0 1-.2 4.7-16.8-5.4-31.6-24.4-34.7m22 99.2c1-1.1 3-2.2 3-3.3.3-11 .3-22 0-33 0-1.2-1.7-3.1-3-3.5a68.4 68.4 0 0 0-34-.1c-10.8 2.8-16 9.4-15.9 19.8.2 11.5 4.7 18.1 16.3 19.7 10.7 1.4 21.8.4 33.6.4z"/><path fill="#FE5504" d="M567.3 194c0-18.7.2-36.8-.3-55a91 91 0 0 0-3.3-21c-2.4-9-8.7-15.2-18-15.8-10.6-.7-21.4.5-32.1 1-.8 0-1.9 1.7-2.2 2.7-.3 1.4 0 3 0 4.5l-.1 108.4v5.8h-34.8l-.3-5V84c0-3.8 1-5.4 4.8-6.3 23.7-5.6 47.6-8.8 71.8-6 27.8 3.4 44.1 19.7 48 47.3 1 7 1.5 14 1.6 21 .2 26.6 0 53.2 0 79.9l-.2 4.6h-35V194z"/><path fill="#04A2C5" d="m1231.6 79.9-5.7 25.6c-4.3-1.4-8.3-2.8-12.4-4a71.2 71.2 0 0 0-34.5-1.5c-5.8 1.2-10.7 3.9-12 10.3-1.5 6.7.7 12.6 7.2 16 8.4 4.4 17.4 7.5 25.9 11.7 8.6 4.2 17.3 8.5 25.3 13.8 7.1 4.7 11 12.1 12.8 20.6 5.3 25.3-4.6 43.1-28.8 51.7-20.6 7.3-60.8 5-80.7-4.7 1.9-9.2 3.8-18.6 6-28.5l14.7 4.6a97 97 0 0 0 39 3.4c9-.9 14.2-4.5 15.5-10.3 1.7-7.3-1-13.5-9.4-17.8-10.8-5.5-22.2-9.8-33.2-14.8a47.9 47.9 0 0 1-25-21c-13-25.3.3-54 28.6-61.9 21.7-6 43.2-3 64.4 3.5 1 .3 1.6 1.9 2.3 3.3zm112 146.8c-10.3.2-20.1 1.3-29.8.4-24.2-2.5-38.3-16.6-41.7-40.4-1-7.4-1.7-15-1.7-22.4-.2-42 0-84-.2-126 0-3.5 1-4.8 4.6-5.3 9.8-1.3 19.7-3 30.3-4.8v45.3h53.6V103H1306v69c0 1.5.1 3 .3 4.4 2.8 17 12.5 23.8 30.8 21.3 6-.8 12-2.5 18-3.9l4.5-1c1.8 8.4 3.7 16.5 5.1 24.7.2 1-1.3 3.2-2.5 3.6-6 2.1-12 3.8-18.5 5.7z"/><path fill="#FE5504" d="m256 101.8-28.7 1.2c-4 .2-5.1 2.1-5.1 6.1.2 36.6 0 73.3 0 110v5.5h-34.6V81.1c29.7-10.2 60.1-14.3 92-5l-6 29.3-17.6-3.6z"/><path fill="#FE5404" d="M1363.4 178.6c-6.6-4.6-12.7-9.2-19.3-13-6.6-3.8-13.7-6.8-20.8-10.2h70.3v70.3a87.7 87.7 0 0 0-30.2-47.1z"/><path fill="#888" d="m1379.1 297.6 3.1-1.3c1.6 6.3 1 7.3-5 8.3-9.6 1.7-17.6-2.7-20.6-11-3.3-9.3-.2-18.7 7.6-23 8.3-4.8 18.9-3.3 24.4 3.9 1.8 2.3 3 5.6 3.3 8.6.6 5.4-.1 11 .3 16.4 1.2 16-10.2 24.4-26.4 20.8-5.6-1.2-5.6-1.3-3.2-6.8 4 .3 7.9.9 11.8.8 7-.3 10.6-4.2 10.6-11.1v-16c0-7.2-5-13-11-13-6.9 0-12 5.7-12 13.2.1 6.7 5.2 11 12.8 10.9a19 19 0 0 0 4.3-.7zM53 271.3c0 7.3-.2 14.1 0 21 .3 5.7-2 9.8-7.2 11.9-4.8 2-9.7 1.8-14-2l-.5-.4c-4.6 1.3-8.3 3-12 3.3a11 11 0 0 1-12-10.3c-.6-8.4-.2-16.9-.2-25.6h7c0 7.2-.2 14.4 0 21.7 0 3.2.4 6.5 4.5 7.2 4.3.8 7.3-1 7.8-5.4.5-5.1.3-10.3.4-15.4V269h7v22c0 3.2.7 6 4.4 6.9 4.7 1.2 7.7-.8 8-6 .3-5.6.1-11 .2-16.6V268a39 39 0 0 1 6.6 3.4z"/><path fill="#8A8A8A" d="M520 289v-7.4c-.3-4.3-3.3-7.7-6.7-7.3-4 .5-6.2 3.2-6.3 7.2-.2 6.6-.1 13.3-.1 20l-.3 2.2h-6.5c0-7 .4-14-.1-20.8-.2-2.7-1.6-6.1-3.6-7.6-4.2-3-9.3.3-9.6 6-.4 5.8-.2 11.7-.2 17.5v5h-6.4c0-8.9-.7-17.9.2-26.7.9-7.8 12.8-11.6 20-7.1 1 .6 1.8 1.4 2.6 2 2.4-1.2 4.5-2.6 6.9-3.2 9-2.7 16.8 3.2 16.8 12.6v22.4l-6.7.4V289z"/><path fill="#878787" d="M808.8 284.9v-16.5l6-.3c0 9.6.8 19-.2 28-.9 8-12.6 11.4-19.5 6.5-1-.7-1.7-1.5-2.7-2.4-4.4 4-9.3 5.9-15.1 3.9-5-1.8-7.1-5.8-8.1-10.6-.3-1-.2-2.3-.2-3.4v-21.7h7.1v19.2c0 7.5 1.9 10.4 6.5 10.3 4.8-.2 6.3-2.7 6.3-10.4v-19.1h7.1c0 7.3-.2 14.5.1 21.8 0 2.1.8 4.8 2.2 6.2 3.4 3.2 8.5 1.5 9.7-3.2.7-2.5.6-5.2.8-8.3z"/><path fill="#8C8C8C" d="M149.2 277v-23.7h7.5v18.8c-.1 6.3.2 12.7-.7 18.9a16.4 16.4 0 0 1-17 14.5c-10 0-16-4.7-18.1-13.7-2.2-9.9 1.2-17.9 9.9-21.5 2.9-1.2 6.4-1.3 9.7-1.2 6.4.2 7 1.3 6.2 8.4-2.5-.6-5-1.5-7.6-1.8-6-.7-11 3-12 8.6-1.3 7 2.5 13 9 14.5 6.1 1.3 10.6-1.3 12.1-8 1-4.3.7-8.9 1-13.8z"/><path fill="#898989" d="M653 253c3.3-.4 4.7.5 4.7 3.8-.2 10 .2 20-.2 30-.5 14.7-12.3 22.3-26 17.1-8.8-3.3-13-15.4-8.8-25 3.7-8.5 15.1-13 23.1-8.6 1.7 1 2 4.4 3.2 7.3-4.5-.9-7.5-1.8-10.6-2-5.7 0-10 4.2-10.5 10-.6 7 3 12 9.2 13.2 6 1.2 10.2-1.3 12-7.6.8-2.8 1-5.9 1-8.8.2-8.5 0-17 .2-25.5 0-1.3 1.5-2.6 2.7-3.9z"/><path fill="#888" d="M696.3 277.3c-1.4 4-3.4 7.6-3.5 11.3-.5 10-.2 19.9-.2 30.2h-6.3c0-12.7-.8-25.4.2-37.9.8-9.2 11.5-15.3 21.2-13.6 9.3 1.6 16 10.5 15 20-1.4 12.6-10.9 19.5-22.6 16.9-5-1.1-6.3-3.6-4.7-8.4 6.8 1.9 14 5.1 18.7-3.6a13 13 0 0 0-3-16c-4.2-3.4-9-3.1-14.8 1z"/><path fill="#898989" d="M1127.8 291.4c.5-6.6 1-13 1.2-19.2.2-6.4 0-12.9 0-19.6h7.1V286c0 11.5-7 19-17.4 19-11.9-.2-18.9-7.3-18.7-19.2a17.2 17.2 0 0 1 21.2-17.2c6 1.2 6.3 1.6 5.3 8-12.6-2-17.5-.6-19.4 5.7-1.9 6.3.8 13.5 6.2 15.2 5.4 1.6 11.7 2 14.5-6z"/><path fill="#888" d="M172.2 270c9.6-4.2 18-2.5 23.3 4.4a20.1 20.1 0 0 1-.5 24.9c-4.9 5.9-14.9 8.1-21.3 4-1.7-1-2-4.3-3-7 4.8.8 8.1 1.8 11.5 1.8 6.3 0 9.8-4 10-11 .3-7.1-4-12.3-10.4-12.9-5-.5-11.4 4.2-11.8 9.5-.7 9-.6 18.2-.8 27.3v8.7h-6c0-12.8-.4-25.4 0-38 .3-5.2 4-9 9-11.7zm245.7 7c-7.3-6.6-18.9-.5-18.8 10.4v32.2h-6c0-1.2-.3-2.3-.3-3.4 0-10.4-.2-21 0-31.4.3-10.3 8-17 18.8-17 10 .2 17.2 7.3 17.5 17.3.5 14-9.5 22.7-22.2 19.7-4.7-1.1-7-3.3-5.2-8.6 6.6 1.7 14 5.3 18.9-3 3-5.2 2-11.2-2.7-16.2z"/><path fill="#898989" d="M223.9 292c-2-10.9 2.8-19.6 12-22.8 9.4-3.2 18.3 1 23.2 11l-23.4 12.7c-4.1-4.3-4-4.8.8-7.6l12.3-7c-3-4.3-7-4-10.5-2.8-4.6 1.3-6.8 5-7.5 9.7-.7 4.8.5 9 4.6 11.8 4 2.8 8.7 3 12.8.6 2-1.2 3.5-4 4.2-6.5 1-3.4 3.4-3.7 5.6-2.7 1.2.6 2.2 4 1.6 5a31.2 31.2 0 0 1-8.2 9.7c-10.3 6.3-23.6.8-27.5-11.1zm386.4-19.4 6.2 7.1-24.8 13.5-3-5.2 16.5-9.6.2-1.3c-2.2-.8-4.3-2-6.5-2-5.1-.4-9 2.3-10.8 7.1-2 5-.7 11.2 3 14.2 3.2 2.8 10 3.7 13.6 1.2 1.7-1.1 3-3 3.9-5 2.3-4.8 2.2-4.9 7.6-4 1.3 6.1-2.6 12.4-9.6 15.4-8.3 3.6-19 .7-23.7-6.5-4.8-7.3-3.7-18 2.6-23.8 7.4-6.9 16.2-7.3 24.8-1zM828 286.2c.8 9.6 7.3 14.4 15.9 11.5 2.2-.8 4.3-3.5 5.5-5.8 2.6-5 2.4-5.1 8-3.3.3 8.3-5.8 14.8-15 16.2-9.3 1.3-18.3-4-20.7-12.5a18.8 18.8 0 0 1 10.6-23.1c9.5-3.9 18.5-.3 24.5 10.3l-24.2 13-3-5 17-10c-3.2-3.4-6.4-4-10-2.9-5.6 1.6-7.8 5.9-8.6 11.6z"/><path fill="#8D8D8D" d="M1163.3 284v-31.7h6.6v18.3l5-2.5c9-3.9 18.9 2.3 19 12.1v21.5c0 .5-.2 1-.4 1.7h-6.4c0-7 .2-14 0-20.8-.2-7-7-11.4-12.3-7.5a13.6 13.6 0 0 0-4.6 8.7c-.6 6.4-.2 12.9-.2 19.7h-6.7V284z"/><path fill="#898989" d="M1058.8 282.5c-.1 2.9 0 5.4-.6 7.8-1.9 8-7.5 13.2-14.5 13.8-10.3.8-16.7-2.5-20-10.4a19 19 0 0 1 4-21.6 19 19 0 0 1 22.1-2.5c5 2.8 8 6.8 9 12.9m-16.8 15.3c9-2.5 12.7-11.4 8-19.3-3.4-5.6-13.2-6.7-17.4-1.8a13 13 0 0 0-2.2 14.4c2 5 5.6 7.1 11.6 6.7zm191.7-2.3c-5.5 8.1-12.5 10.6-22 8-7.2-2-11.7-8.4-12.2-17.5a17 17 0 0 1 11-17.3c7.7-3 17-1.3 21.9 4.8 5.2 6.7 5 14.2 1.3 22m-4.6-9.1c.2-4.8-.6-9.7-5.5-11.2-3.8-1.1-8.7-1-12.3.5-4.5 1.9-5.7 9.8-3.5 15.3 2.2 5.2 6 7.5 11.4 6.9 6-.8 9-4 9.9-11.5zM387 290.8c-4 11.4-11 15.5-21.4 13.8a16 16 0 0 1-14.2-13.4c-1.6-7.4-.7-14.4 5.8-19.4 6.5-5 13.6-5.4 20.7-2 7.9 3.9 10.8 10.9 9 21m-7-8.6c-2-2.4-3.7-5.6-6.3-7-5-2.5-10.2-1-13 2.7a14.3 14.3 0 0 0-.3 16.3c3 4.7 7.5 4.4 12 3.7a8.6 8.6 0 0 0 7.6-8c.3-2.2.1-4.5 0-7.7zM71.2 268.8c9.2-2.2 17.8.4 21.9 6.5a20.7 20.7 0 0 1-1.1 23c-4.9 6.3-11.4 7.5-18.8 6-8-1.4-12-6.5-13.5-14-1.6-7.5.2-13.9 6.4-18.7 1.4-1 3.2-1.8 5.1-2.8m-4.2 13c-1.7 8 1.5 15 7.3 16.2 6.5 1.4 12-1.3 13.8-6.6 2.3-6.7 0-14-5-16-6-2.5-13.4-1.4-16 6.4z"/><path fill="#888" d="M727 289.5c-1.1-8.7 1-15.7 8.7-20 7-3.9 14-3 20.7 1.3 6 4 8.5 12.3 6.2 20.5-2.2 7.7-8 12.4-15.3 12.8-11.6.5-17-3.3-20.3-14.6m25.2 6.3c3.8-2.8 4-7 4-11.2-.3-6.8-4.2-10.6-11-10.8-7 0-11 3.6-11.3 10.5-.6 11.2 6.8 16.2 18.3 11.5z"/><path fill="#8C8C8C" d="M1242.8 284.1c-5.2-8-2.8-14 6.2-15.3 5.9-.8 12-.6 18.5-1l.3 6.2c-4.7 0-9-.3-13.2.2-2.3.2-4.6 1.7-6.8 2.6 2 1.7 3.8 3.7 6 4.9 3.4 1.7 7.2 2.5 10.6 4.1 4.4 2 5.4 6 4.8 10.5-.6 4.6-3.7 7-7.7 7.2-6.9.5-13.8.1-21 .1v-6.5c5.3 0 10.7.2 16 0 2-.2 3.7-1.4 5.5-2.1-1.4-1.6-2.6-3.8-4.3-4.6-4.8-2.3-9.8-4-15-6.3z"/><path fill="#8B8B8B" d="m1327.9 278.3-1.2 18.2v7l-6.2.3c0-8.7-.8-17.2.2-25.5 1-7.5 8-11.7 16-11.2 7.7.5 13 5.3 13.6 13.1.4 5.8.2 11.7.3 17.5 0 6.6 0 6.6-7.5 5.6V283c0-3.9-1.1-7.5-5.2-8.8-4-1.4-7.5-.2-10 4z"/><path fill="#898989" d="M317 292c-4-1.5-8.2-2.2-11.6-4.2-3-1.8-6.3-4.5-7.8-7.6-2-4.5.7-9.3 5.6-10.1 6.9-1.1 13.9-1.1 20.7-1.6 2 4.9.5 6.4-3.9 6.3-4-.2-8 0-12 .3-1.2.1-3 1.4-3.1 2.4-.2 1 1.1 2.8 2.2 3.3 4.1 1.7 8.7 2.6 12.5 4.8 2.7 1.6 5.6 4.6 6.2 7.5 1.6 6.9-2 10.8-9.1 11-6.3.2-12.6 0-19.3 0V298h17.2c1.5-.1 3.2-1 4.1-2 .5-.5-.8-2.5-1.7-4z"/><path fill="#888" d="M278 304.1h-13c0-2 0-3.8-.2-6.2 5.6 0 10.9.2 16.1-.1 1.9-.1 3.6-1.5 5.4-2.3-1.3-1.5-2.3-3.6-3.9-4.4-3.3-1.5-7-2-10.3-3.4-4-1.7-7.2-4-7.3-9.1-.1-5 1.7-8.3 6.7-8.8 6.6-.7 13.2-.8 20.2-1.3l.4 6.4c-5.3 0-10.2-.2-15.1 0-1.7.2-3.3 1.5-5 2.3 1.4 1.5 2.4 3.6 4 4.3 3.2 1.5 6.7 2.1 10 3.4 6.2 2.6 8.6 6.5 7.7 11.8-1 5-4.4 7.4-11.2 7.4H278z"/><path fill="#878787" d="M1071.4 302.9c-2.2-2.7-5.4-5-5.8-7.6-1-8.8-1.1-17.8-1.6-27h7V289c0 4.5 1.6 8.2 6.6 9.2 6 1.1 10-2.7 10.3-9.8v-19.8h5.8c0 8.7 1 17.6-.3 26.1-1.3 9.2-11 12.3-22 8.3zM911 275.1l.1 14c.2 6 3 9 8.2 9.2 4.8.1 8.4-3.4 8.6-9 .2-6.8 0-13.6 0-20.8h6c0 8.7.7 17.4-.3 26-.7 7-8.1 11-15.5 10.4-8-.8-12.8-5.4-13.1-13-.3-7.2-.2-14.3-.2-21.5 0-.6.3-1.2.5-2h5.8v6.7z"/><path fill="#888" d="m566.7 278.6 2.2-3.3h-16V269c6.8 0 13.4-.4 20 .1 4.4.3 5.8 5 2.6 9.3-3.4 4.6-7.3 9-11 13.5l-4.9 6.2h18l.2 5.9c-8 0-15.6.3-23.1-.1-3.7-.2-4.6-4.2-2-7.8 4.5-5.8 9.2-11.4 14-17.5z"/><path fill="#8B8B8B" d="m1295.6 298.3.1 5.5c-4 0-7.6.2-11.2-.1-5-.4-8.2-3.6-8.3-8.4-.4-11.8-.1-23.5-.1-35.7h6.5l.5 8.3h12.7v6.8H1283c0 6.9-.2 13.2.2 19.4 0 1 2.2 2.6 3.6 2.9 2.9.7 5.8.7 8.8 1.3z"/><path fill="#888" d="M452.8 297.9c1.5 1.6 2.6 3.2 3.7 4.9l-1.3 1.2c-4 0-8 .3-11.8 0-4.4-.4-7.3-3.9-7.4-9.2-.2-11.3 0-22.6 0-34.3h6.5l.6 8.2h12.6v6.3H443c0 6.9-.2 13.1.2 19.3 0 1.3 2 3 3.3 3.4 1.8.6 4 .2 6.4.2z"/><path fill="#878787" d="M885 265.3c.6-10 6.7-14.1 17.7-12.3v4.8c-3.4 1.3-7 2-9.8 4-1.4.9-1.3 4-2.1 6.8l10.8.6c0 1.9.2 3.5.3 5.2l-2 .7c-8.7.5-8.7.5-8.7 9.4v19l-6.3.3v-38.5z"/><path fill="#898989" d="M987.6 279.9c-2.8 5.2-3 10.6 1.2 14 3.3 2.7 8.5 3 13.4 4.7 1 5 .8 5.3-6.1 5.2-9.3-.1-15-4.3-17.5-12.7-2.1-7.1.7-15.7 7.7-19.4 4.6-2.3 10.3-2.5 16-3.8v5.4l-14.7 6.6z"/><path fill="#868686" d="M943 260v-7.7h6.8v51H943v-43.2z"/><path fill="#898989" d="M1015.2 282v21.4h-6.8v-51.1h6.8V282z"/><path fill="#8D8D8D" d="M870 285.4v18h-6.6v-35.6c6 2.1 11.5.6 17.3-1.5l.3 6.7c-6.7 1.2-10.9 4.8-11 12.4z"/><path fill="#8B8B8B" d="M210.8 286.3v17.6h-6.4v-34.3l17-1.6v5.7c-6.7 1.2-10.6 5-10.6 12.6zm-103 7.7v9.7h-6.4v-35.2c5.8 3 11.2-.6 17.2-.8 0 2.2.2 3.8.3 6-12.4 1.7-11.2 11-11 20.3z"/><path fill="#888" d="M1309 281v22c-6 1.7-6.7 1.3-6.7-4.4v-30.1h6.7V281z"/><path fill="#8D8D8D" d="M469 292v11.7h-6.4v-34.5h6.4V292z"/><path fill="#8E8E8E" d="M536.1 291v-21.8h6.5v34.5H536V291z"/><path fill="#8B8B8B" d="M468.3 257.5c.3 2.2.8 4.4.1 6.2-.2.6-3.5 1-4.6.2-1.1-.7-2-4-1.5-4.3 1.6-1.2 3.7-1.6 6-2z"/><path fill="#8C8C8C" d="M538.3 257.2c2.1 1 4.1 1.7 5.4 3.2.4.3-1.2 3.4-2.4 3.9-1.3.5-4.5-.6-4.6-1 0-2 .8-4 1.6-6.1z"/><path fill="#8B8B8B" d="M1303.7 263.5c-.4-2.1-1.2-4.5-.4-5.8.7-1 3.7-1 5.2-.4.9.4 1.7 3.9 1.3 4.1-1.7 1.2-3.8 1.6-6.1 2.1z"/></svg>